<?xml version="1.0" encoding="UTF-8" standalone="no"?>
<!-- Created with Inkscape (http://www.inkscape.org/) -->

<svg
   version="1.1"
   id="svg1"
   width="424.86575"
   height="468.89636"
   viewBox="0 0 424.86575 468.89636"
   xmlns="http://www.w3.org/2000/svg"
   xmlns:svg="http://www.w3.org/2000/svg">
  <defs
     id="defs1" />
  <g
     id="g1"
     style="display:inline"
     transform="translate(-491.13424,-149.94289)">
    <g
       id="g15"
       style="display:inline">
      <path
         style="display:inline;fill:#167c81"
         d="m 689,618.66962 -1.5,0.16963 -33.25,-33.76841 -33.25,-33.7684 v -1.55137 -1.55137 l 10.42767,-27.62655 10.42767,-27.62656 -7.14583,-15.0757 -7.14582,-15.07571 -3.53185,0.53427 -3.53184,0.53426 -18.5,4.09797 -18.5,4.09798 -11.5,2.46503 -11.5,2.46503 -2.34425,0.005 L 555.81151,477 537.15575,466.35249 518.5,455.70498 l -3.13206,-2.31342 -3.13205,-2.31342 -4.4975,-7.78907 -4.49749,-7.78907 -6.05333,-10.9541 -6.05333,-10.95409 0.49677,-0.80379 0.49677,-0.80379 7.18611,-5.28358 7.18611,-5.28357 36.84112,-25.88279 36.84112,-25.88279 1.2811,-2.07575 1.2811,-2.07575 4.23611,-22 4.23612,-22 0.80335,-1.51924 0.80335,-1.51923 23.33831,-16.41123 23.33832,-16.41123 13.5,-9.61402 13.5,-9.61401 13.16542,-9.20552 L 692.83084,228 h 6.96214 6.96213 l 1.37245,-1.6124 1.37244,-1.6124 17.57425,-37.1376 17.57426,-37.1376 1.44327,-0.27855 1.44327,-0.27856 1.89222,3.27856 1.89223,3.27855 27.34025,42.71265 L 806,241.9253 v 44.11989 44.11989 l 8,31.58231 8,31.58231 V 394.66485 396 h -1.20842 -1.20842 L 802.54158,386.86245 785.5,377.72491 766.41257,367.36245 747.32514,357 h -1.19783 -1.19782 l -30.6568,15.94032 -30.65679,15.94033 -0.83414,-0.51553 -0.83413,-0.51552 9.18591,-17.6748 9.18591,-17.6748 4.34028,-7.71531 L 709,337.06938 v -1.35245 -1.35244 l -12.25,-5.61295 -12.25,-5.61294 -20.38025,-9.54325 -20.38025,-9.54326 -1.77777,-0.56424 -1.77776,-0.56424 -18.84199,26.17024 L 602.5,355.26408 589.25,364.63204 576,374 l -13.25,9.31529 -13.25,9.31528 -7.73727,5.30081 -7.73726,5.30081 0.58626,0.9486 0.58627,0.94859 5.64097,2.70437 5.64098,2.70437 0.30895,1.60422 0.30894,1.60422 -8.60537,13.20738 -8.60536,13.20739 0.33176,0.99527 0.33175,0.99526 14.68958,8.45006 14.68957,8.45005 15.78512,-3.43854 L 591.5,452.17489 626.24475,444.58744 660.9895,437 h 2.51535 2.51536 l 23.53223,17.52855 23.53224,17.52856 0.49941,1.30143 0.4994,1.30142 -11.53139,46.42002 -11.53139,46.42002 -1.89574,7.75 -1.89573,7.75 h 0.80499 0.80499 l 34.9938,-69.75228 34.9938,-69.75227 -3.40153,-22.49773 L 752.02376,398.5 750.51188,388.37166 749,378.24332 v -3.20912 -3.20913 l 14.25,7.50468 14.25,7.50469 9.89665,5.34172 9.89665,5.34171 1.09153,1.73043 1.09152,1.73043 L 744.98818,509.73937 690.5,618.5 Z M 711.39544,607 H 710 l 0.0126,-0.75 0.0126,-0.75 49.88689,-99.46651 49.8869,-99.46651 1.29153,-0.43051 1.29152,-0.43051 13.22047,6.89702 13.22046,6.89702 0.63386,-0.62872 0.63387,-0.62871 -11.05938,-44.1622 -11.05937,-44.16219 0.26399,-31.62609 0.26399,-31.62609 1,-0.30074 1,-0.30075 29,21.71893 29,21.71893 v 1.49882 1.49881 l -11,1.81644 -11,1.81645 -0.72562,0.70917 -0.72562,0.70918 5.6489,9.47438 5.64889,9.47438 24.82672,41.17606 L 916,418.85212 V 420.42606 422 h -14.51618 -14.51618 l -1.46019,3.25 -1.4602,3.25 -6.4105,15.5 -6.4105,15.5 -11.21262,27.5 -11.21262,27.5 -1.47577,2.32969 -1.47577,2.32969 -16.17474,10.60328 L 813.5,540.36595 763.14544,573.68298 712.79088,607 Z M 616.4799,369 H 616 l 0.0208,-1.25 0.0208,-1.25 11.05957,-13.5 11.05957,-13.5 2.94385,-3.25 2.94385,-3.25 h 18.91673 18.91674 l 0.68556,1.10927 0.68556,1.10926 -12.86211,12.89074 L 657.52886,361 H 647.28453 637.0402 L 627,365 l -10.0402,4 z m 5.60714,-106 H 621 v -2.2679 -2.26789 l 3.97465,-43.48211 3.97464,-43.4821 0.5956,-4.3098 0.59559,-4.30979 1.34465,0.30979 1.34464,0.3098 22.33512,21.16445 22.33511,21.16445 4.88654,5.00853 4.88655,5.00853 -0.50962,1.32702 -0.50961,1.32702 -12.87693,9.05121 L 660.5,236.60242 641.83704,249.80121 623.17408,263 Z"
         id="path17" />
      <path
         style="display:inline;fill:#0c2842"
         d="m 689.1402,617.41335 -0.86945,0.53735 -8.30762,-8.72535 -8.30761,-8.72535 -24.91143,-25.14287 -24.91143,-25.14287 8.50172,-22.85713 8.50173,-22.85713 2.08194,-4.83291 2.08195,-4.8329 v -1.51158 -1.51158 L 636.5,478.38786 630,464.9647 v -0.94717 -0.94716 l -1.75,-0.92367 -1.75,-0.92367 -22.5,4.91584 -22.5,4.91584 -12.14366,2.61295 -12.14365,2.61295 -18.85635,-10.77468 -18.85634,-10.77468 -2.8053,-1.9731 -2.8053,-1.97309 -2.37236,-3.75807 -2.37236,-3.75806 -8.07234,-14.5773 -8.07234,-14.5773 0.0444,-0.80717 0.0444,-0.80716 7.70555,-5.42962 7.70556,-5.42962 13.5,-9.4946 13.5,-9.49461 9.5,-6.66093 9.5,-6.66093 13.31511,-9.2994 13.31512,-9.29941 1.33852,-2.11544 1.33852,-2.11544 4.22201,-21.5 4.22201,-21.5 0.78834,-2.08885 0.78833,-2.08885 11.33602,-7.95611 11.33602,-7.95611 22,-15.49411 22,-15.49411 14,-9.86873 14,-9.86873 2.38486,-1.8422 2.38486,-1.8422 h 7.21015 7.21015 l 1.54646,-1.75 1.54645,-1.75 17.21452,-36.5 17.21452,-36.5 0.49535,-0.5 0.49535,-0.5 1.48561,2 1.48561,2 17.51989,27.5 17.51988,27.5 10.39317,16.17754 L 805,242.85508 v 44.19687 44.19687 l 7.5,30.01444 7.5,30.01444 v 1.46814 1.46814 l -1.75,-0.65418 -1.75,-0.65418 -15,-8.08538 -15,-8.08537 -19,-10.30448 -19,-10.30447 -3,-0.71434 -3,-0.71433 -4,-2.71331 -4,-2.7133 -11,-6.20435 -11,-6.20435 -1.5,-1.89442 -1.5,-1.89441 -13,-5.94308 -13,-5.94309 -19.5,-9.21709 -19.5,-9.21709 -2.51447,-0.45531 -2.51447,-0.45531 -13.48553,18.67376 -13.48553,18.67377 -5.60809,7.72542 -5.60808,7.72543 -11.86383,8.42974 -11.86382,8.42974 -8.72436,6 -8.72435,6 -13.55374,9.35418 L 533,402.20837 v 1.71194 1.71195 l 6.07752,2.90479 6.07752,2.90479 0.49134,0.79501 0.49134,0.79501 -8.71617,13.20125 -8.71617,13.20126 -0.10269,1.45394 -0.10269,1.45394 15.46694,8.99518 15.46693,8.99518 10.53307,-2.12108 10.53306,-2.12108 38.9858,-8.58388 38.9858,-8.58387 2.0142,0.29004 2.0142,0.29004 -8.75,8.50921 -8.75,8.5092 v 1.086 1.086 l 7.5,15.64268 7.5,15.64267 v 2.57647 2.57647 l -1.17545,2.18426 -1.17544,2.18426 -4.25259,12 -4.25259,12 -4.08175,11.33188 -4.08176,11.33189 21.60896,22.34867 21.60896,22.34868 1.35118,-0.5185 1.35117,-0.51849 4.29966,-8.69105 L 695.5,572.44204 727.76671,508.22102 760.03341,444 h 7.9833 H 776 l -0.0213,0.75 -0.0212,0.75 -8.29843,16.5 -8.29844,16.5 -34.6755,69.188 -34.6755,69.18801 z M 774,294.70742 l 1.5,-0.2453 -0.35504,-23.98106 -0.35504,-23.98106 -4.82103,-10.5 -4.82104,-10.5 -4.92401,-11.5 -4.92401,-11.5 -2.87244,-6.75 -2.87244,-6.75 h -1.12578 -1.12579 l -1.581,3.75 -1.581,3.75 -3.93938,9.5 -3.93938,9.5 -3.22169,7 -3.22169,7 -3.34004,8.65345 -3.34004,8.65345 -2.19772,4.30789 -2.19772,4.30789 3.2816,2.7396 3.28161,2.73961 13.09654,8.99955 13.09653,8.99956 10.5,8.02586 10.5,8.02587 z m -60.84362,310.06281 -1.42928,0.54847 0.38645,-0.99662 0.38645,-0.99663 48.87753,-97.41272 48.87753,-97.41273 0.75101,-0.82854 0.75101,-0.82854 13.45549,7.07854 L 838.66807,421 H 840.33403 842 v -0.47445 -0.47446 L 831.10252,376.27555 820.20503,332.5 819.75808,308 l -0.44696,-24.5 0.59444,-7.85827 0.59444,-7.85826 21,15.66472 21,15.66473 7.33213,5.56141 7.33214,5.5614 -0.83214,0.79326 -0.83213,0.79325 -10.11933,1.58888 L 855.26134,315 H 854.63067 854 v 1.76539 1.76539 l 30.07585,49.96216 30.07585,49.96217 0.17415,1.02244 0.17415,1.02245 -14.47178,0.5 -14.47177,0.5 -9.29373,22.5 -9.29373,22.5 -7.59772,18.5 -7.59773,18.5 -2.8944,7 -2.8944,7 -22.74237,14.93413 -22.74237,14.93413 -42.95717,28.42675 -42.95716,28.42675 z M 618.37113,367 h -0.47051 l 0.79969,-1.35489 0.79969,-1.3549 12,-14.59724 12,-14.59725 18.98499,-0.0479 L 681.46999,335 669,347.5 656.53001,360 h -10.54536 -10.54537 l -8.29882,3.5 -8.29882,3.5 z m 34.78357,-13 h 1.78051 l 4.0324,-5.34087 L 663,343.31826 V 342.15913 341 h -7.94098 -7.94099 l -0.77816,1.25 -0.77816,1.25 0.30548,2.5 0.30549,2.5 2.60075,2.75 2.60075,2.75 z m -30.24172,-93 h -1.03553 l 0.59323,-4.25 0.59323,-4.25 3.947,-43.39562 3.947,-43.39563 0.46838,-0.46838 0.46839,-0.46838 2.71521,2.13579 2.71522,2.13579 24.33366,23.57983 24.33366,23.57983 -0.54684,0.88481 -0.54685,0.88481 -9.69937,6.72497 -9.69937,6.72497 -20.77575,14.7886 L 623.94851,261 Z"
         id="path16" />
      <path
         style="display:inline;fill:#07223c"
         d="m 689.1039,615.29394 -0.79178,0.79394 -3.71863,-4.11608 -3.71864,-4.11608 1.31258,-1.61509 1.31257,-1.61509 -1.71091,0.64084 -1.7109,0.64085 -4.28133,-3.57695 -4.28134,-3.57695 -1.24339,-1.77519 -1.24339,-1.77519 1.48563,-0.57009 L 672,594.06277 v -2.55947 -2.55947 l -4.35944,0.59122 -4.35945,0.59121 -4.12411,-4.68523 -4.1241,-4.68524 0.53549,-0.86644 0.53549,-0.86644 -1.30827,0.50203 -1.30826,0.50202 -9.36827,-9.40738 -9.36826,-9.40738 0.68361,-1.1061 0.6836,-1.1061 h 1.4096 1.4096 l -0.66266,-1.75 -0.66266,-1.75 -1.05596,-1.01297 L 635.5,553.47407 632.78518,551.73703 630.07037,550 H 627.03518 624 v -0.99067 -0.99067 l 3.55532,-9.25933 3.55532,-9.25933 4.0188,-11.45424 4.0188,-11.45424 0.95574,-1.78581 0.95573,-1.78581 0.72015,0.14881 0.72014,0.14881 1.95897,-0.84594 1.95897,-0.84594 2.21194,-2.56282 2.21194,-2.56282 -1.48204,-1.64629 -1.48204,-1.64629 1.31113,-0.56402 1.31113,-0.56403 -3,0.52844 -3,0.52845 1.75,-1.42837 1.75,-1.42838 V 488.83976 487.4 l -1.2,-1.2 -1.2,-1.2 h -2.14107 -2.14107 l -2.61355,-4.80196 -2.61356,-4.80195 -0.39041,-3.5428 -0.39041,-3.5428 -0.75874,-1.22766 -0.75873,-1.22766 3.82543,-3.8484 3.82544,-3.84839 2.77834,4.92081 L 647,468 l 2.96835,5.25 2.96835,5.25 0.6785,4.5 0.6785,4.5 1.85315,1.3067 1.85315,1.30671 v 2.30375 2.30375 l -2.5,3.68395 -2.5,3.68396 v 2.52927 2.52928 l -2.56536,7.67631 -2.56537,7.67632 -2.43463,4.17807 L 643,530.85614 v 1.60348 1.60347 l -2.07434,6.15759 -2.07434,6.15758 1.13359,2.48796 1.13359,2.48796 -1.58028,0.88437 -1.58028,0.88437 0.56739,0.91806 0.56739,0.91806 1.91669,-1.19699 1.91668,-1.19699 4.46222,4.46747 4.46223,4.46747 3.9272,3 3.9272,3 2.39753,3.42009 2.39753,3.42009 4.75,4.49085 4.75,4.49084 V 584.66094 586 h 1.05902 1.05901 l -0.53543,0.86635 -0.53544,0.86636 1.72642,1.49204 1.72642,1.49204 3.07578,1.02885 3.07579,1.02886 1.54133,-0.86258 1.54133,-0.86257 5.58201,-11.27467 5.582,-11.27468 2.6274,-4 2.6274,-4 -0.54513,1.75 -0.54514,1.75 h 1.26861 1.26862 l 1.12186,-1.12186 1.12185,-1.12185 -0.59891,-1.62815 -0.59892,-1.62814 -0.99837,-0.66744 -0.99837,-0.66744 10.21015,-20.33256 10.21016,-20.33256 1.44402,-2.5 1.44403,-2.5 5.57764,-11.5 5.57764,-11.5 10.69361,-21 10.69361,-21 5.13702,-0.29834 5.13701,-0.29834 -0.30164,4.47419 -0.30164,4.4742 -4.6491,9.0015 -4.64909,9.0015 -2.68628,2.74535 -2.68628,2.74536 1.23855,-0.72465 1.23854,-0.72465 -0.59333,1.5462 -0.59333,1.54619 -0.84504,-0.52226 -0.84504,-0.52227 -1.05018,1.96227 L 753,482.86852 v 0.62476 0.62475 l 0.95655,-0.59117 0.95654,-0.59118 -2.98224,7.232 -2.98223,7.232 -3.51608,6.28733 -3.51607,6.28733 -1.95824,1.04801 L 738,512.07037 v 2.45409 2.45409 l -1.93554,5.09393 -1.93554,5.09393 -4.17919,6.91679 -4.17919,6.9168 h -0.94429 -0.94428 l 0.55222,0.89352 0.55223,0.89352 -1.41889,4.02155 -1.41888,4.02155 -3.79327,6.59528 -3.79328,6.59528 -0.93446,-0.31149 -0.93446,-0.31148 -2.34659,2.34659 L 708,568.09091 v 0.84756 0.84755 l -1.5,0.57561 -1.5,0.5756 v 1.0904 1.0904 l 1,-0.61803 1,-0.61803 v 1 1 l -1.01631,0.62811 -1.01631,0.62812 0.58541,0.94721 0.58541,0.94721 0.9309,-0.57533 0.9309,-0.57532 -0.0396,1.30901 -0.0396,1.30902 -5.71037,11 -5.71036,11 h -1.16667 -1.16666 l -0.62273,0.62272 -0.62272,0.62273 -4.46061,-0.50278 L 684,600.7399 v 0.69579 0.69579 l 0.9729,1.81789 0.9729,1.81788 3.52199,0.66073 3.52199,0.66073 -1.54705,3.70564 -1.54705,3.70565 z m 26.15266,-12.88774 -1.24344,0.70372 4.10943,-8.30496 4.10942,-8.30496 2.24013,-3 2.24013,-3 0.7728,-2.5 0.7728,-2.5 4.2319,-9.09822 4.2319,-9.09823 2.47783,-3.64646 2.47784,-3.64646 0.79825,0.74469 0.79826,0.74468 -0.45894,-1.4661 -0.45893,-1.46609 3.26332,-7.85487 3.26333,-7.85487 3.12619,-4.87175 3.1262,-4.87176 1.54884,0.59435 1.54885,0.59435 -1.05307,-1.96768 -1.05308,-1.96769 3.74779,-8.45893 3.74779,-8.45893 2.68895,-3.95715 L 769,495.53573 v 1.35458 1.35458 l 1.52258,-1.26363 1.52258,-1.26363 -0.58997,-1.85881 -0.58997,-1.85882 0.60051,-1.89203 0.60051,-1.89203 2.00681,-0.52479 2.00681,-0.52479 -0.59518,-2.37138 -0.59518,-2.37138 1.93234,-4.4618 1.93234,-4.4618 6.47279,-11.73346 6.47278,-11.73345 0.43595,0.43594 0.43595,0.43595 0.21668,-2.61808 0.21668,-2.61808 2.38026,-5.19918 2.38026,-5.19918 3.61724,-5.65465 L 805,423.96117 v -0.65083 -0.65083 l 3.14804,-6.82975 L 811.29608,409 h 0.88048 0.88047 l 5.72149,2.90294 5.72148,2.90295 6.98413,4.09705 L 838.46826,423 H 840.73413 843 v -2.91667 -2.91666 l 0.97448,-0.33334 0.97449,-0.33333 -0.58818,-2.23875 -0.58817,-2.23876 -0.88818,0.54893 -0.88819,0.54893 -1.07565,-2.81018 -1.07565,-2.81017 -1.56604,-6.90529 -1.56605,-6.90528 1.15959,-1.8568 1.15959,-1.85679 -0.59679,-2.37782 -0.5968,-2.37781 -2.23485,-1.94318 -2.23485,-1.94318 -2.28289,-9.91692 -2.28288,-9.91693 -2.03146,-8 -2.03147,-8 -1.81238,-6.5 -1.81238,-6.5 0.0213,-28.5 0.0213,-28.5 0.55415,1.39928 0.55415,1.39929 1.63736,-2.1707 1.63736,-2.1707 4.97206,3.15319 4.97207,3.1532 4.25748,3.48868 4.25748,3.48868 0.0333,1.62954 0.0333,1.62954 1.76883,2 1.76883,2 3.27894,1.75 3.27894,1.75 h 2.30895 2.30895 l 5.86001,4.32641 5.86001,4.3264 1.3925,1.69776 1.3925,1.69776 -0.43864,0.43864 -0.43863,0.43864 -9.3845,1.51783 -9.3845,1.51783 -1.06936,1.07743 -1.06937,1.07743 2.8282,5.08253 2.82821,5.08252 0.91877,2.41656 0.91877,2.41656 -0.99697,-0.61617 L 857,329.88197 v 1.85901 1.85902 l 1.2,1.2 1.2,1.2 h -1.23138 -1.23139 l -0.5756,-1.5 -0.57561,-1.5 h -1.83399 -1.834 l -0.61803,-1 -0.61803,-1 -1.19099,0.079 -1.19098,0.0789 1.25,0.50439 1.25,0.50439 v 0.82304 0.82305 l -1.97167,-0.5156 -1.97168,-0.51561 -1.21923,2.67593 -1.21924,2.67594 -1.80909,-0.47309 L 841,337.18724 v 2.32305 2.32304 l 1.25,0.43724 1.25,0.43723 -1.75,1.97484 -1.75,1.97484 V 348.32874 350 h 2.55202 2.55202 l 1.02525,-2.94103 1.02525,-2.94104 2.63318,-0.30896 2.63319,-0.30897 0.58524,-2.5 0.58524,-2.5 5.45431,0.005 5.4543,0.005 6.25,10.39805 6.25,10.39804 v 0.77542 0.77541 l -1.58062,1.58062 -1.58062,1.58062 -0.91763,-0.56712 -0.91762,-0.56713 -2.02358,1.41738 -2.02359,1.41737 1.33998,1.11208 1.33998,1.11209 2.34771,-1.6444 2.34771,-1.64441 -0.62519,1.0116 -0.6252,1.01159 3.932,2.20991 3.93201,2.20991 0.77733,-0.22128 0.77733,-0.22128 2.68406,3.92265 2.68407,3.92266 2.19243,4.36281 2.19242,4.3628 -1.36309,0.84244 -1.36309,0.84244 2.25877,2.10437 2.25878,2.10437 -0.71413,1.19038 -0.71414,1.19039 1.64891,-1.33672 1.64891,-1.33671 3.39306,5.33671 3.39305,5.33672 1.15,2.18426 L 906,407.8683 v 0.44911 0.44911 l -1.95558,0.51139 -1.95558,0.5114 1.20558,2.59743 1.20558,2.59744 3.00945,0.008 3.00946,0.008 1.24902,2 1.24902,2 -13.25848,0.0153 -13.25847,0.0153 -1.41052,0.89291 -1.41053,0.89291 -1.83947,-1.14877 -1.83948,-1.14877 -1.88477,1.17706 -1.88477,1.17706 -1.93509,-0.50604 -1.93508,-0.50604 -1.43015,1.7354 -1.43014,1.7354 2.83379,-0.70596 2.83379,-0.70595 -0.62027,1.0036 -0.62026,1.00361 2.03648,2.03648 L 878,428 h 1.5 1.5 v 0.47397 0.47397 l -3.08737,7.77603 -3.08737,7.77603 -1.02939,1.24315 -1.02938,1.24314 -3.86661,-0.61829 -3.8666,-0.6183 -0.62363,1.62515 L 863.78602,449 H 862.39301 861 l 0.0789,1.75 0.0789,1.75 0.55415,-1.39928 0.55415,-1.39929 1.85955,2.39929 1.85954,2.39928 1.08565,-1.5 1.08565,-1.5 -0.43962,2.75 -0.43962,2.75 h 0.80176 0.80175 l -2.31353,6.75 -2.31353,6.75 -3.2049,7.12503 -3.20491,7.12503 -2.2959,1.04608 -2.2959,1.04608 -0.6714,3.57889 L 851.90937,494 H 850.95469 850 v 1.10699 1.10699 l 1.5,-0.57561 1.5,-0.5756 v 0.96417 0.96417 l -3.94203,9.61314 -3.94203,9.61314 -0.30797,0.23714 -0.30797,0.23714 -3.98213,2.65417 L 836.53573,522 h -2.20885 -2.20885 l -0.65615,1.06168 -0.65616,1.06169 -2.40286,0.91356 L 826,525.9505 v 1.4444 1.44441 l -17.74537,11.72429 -17.74537,11.72429 -3.66757,1.91164 -3.66758,1.91165 -2.02485,0.15253 -2.02485,0.15253 -0.46858,1.79188 L 778.18724,560 h -1.02219 -1.02219 l -1.5,-1.5 -1.5,-1.5 h -0.47781 -0.47781 l 0.4806,2.25 0.4806,2.25 -1.4231,-1.73446 -1.42309,-1.73445 -0.65113,0.65112 L 769,559.33333 v -2.19805 -2.19805 l -1.60092,-0.61433 -1.60093,-0.61433 -0.87625,1.39571 -0.87624,1.39572 0.59545,2 0.59545,2 1.5924,1.81154 1.5924,1.81154 1.84647,-0.48287 1.84647,-0.48286 -1.24332,1.49812 -1.24333,1.49811 -11.06383,7.36235 -11.06382,7.36236 -2.83669,0.51035 -2.83668,0.51036 -1.62296,1.3005 -1.62296,1.3005 -2.87612,3.2297 -2.87612,3.22969 -6.16423,3.67564 -6.16424,3.67565 -2,1.69589 -2,1.6959 z m -144.44893,-130.44887 -12.69238,2.71049 -3.1256,-1.31422 -3.12559,-1.31421 -2.88686,-2.05563 -2.88686,-2.05562 0.48317,-1.25912 0.48317,-1.25912 -4.09378,-1.80617 -4.09379,-1.80617 -0.55635,0.55635 -0.55635,0.55635 -5.1282,-2.568 -5.12821,-2.56799 -5.75,-3.45954 -5.75,-3.45954 V 449.9276 449 h 1.45031 1.45031 l 0.87652,-1.56625 0.87652,-1.56626 3.84394,-0.86695 3.84394,-0.86695 4.01201,2.04678 4.01202,2.04678 6.81721,4.53314 6.81722,4.53314 v 0.4123 0.4123 l -1.25,-0.71934 -1.25,-0.71934 0.75723,0.83422 0.75724,0.83423 2.24276,0.20116 2.24277,0.20117 3.18037,1.31789 3.18036,1.31789 11.31964,-2.12969 11.31963,-2.12969 15,-3.47708 15,-3.47708 4,-0.62329 4,-0.62328 -1.5,1.07835 -1.5,1.07836 5,-0.61255 5,-0.61255 -1.5,1.05598 -1.5,1.05598 1.25,0.0153 L 627,452 v 1.83333 1.83334 l 0.61905,0.61904 0.61905,0.61905 1.44471,-1.44471 1.44471,-1.44471 -0.62278,-1.00767 L 629.88197,452 H 631.44098 633 v 0.95295 0.95294 l -1.17144,2.57103 -1.17144,2.57103 -2.07856,0.44528 -2.07856,0.44528 -11.88021,2.58901 -11.8802,2.58902 -4.86949,0.0377 -4.86949,0.0377 0.45845,0.74178 0.45845,0.74178 -5.20876,1.28565 -5.20875,1.28565 z m 70.37013,-20.11242 -3.32223,0.19787 0.63125,-1.02139 L 639.11803,450 633.80902,449.88169 628.5,449.76337 625.5,449 l -3,-0.76337 0.68787,-0.11832 L 623.87575,448 639,444.5 654.12425,441 h 2.13404 2.13404 l -3.44616,3.58763 -3.44617,3.58763 -3.5,1.73589 -3.5,1.73589 z M 519.09301,443 H 517.4 l -1.08466,-1.08466 -1.08467,-1.08467 -2.36533,0.33564 -2.36534,0.33565 -1.61872,-2.00098 -1.61872,-2.00098 -4.0777,-8 -4.0777,-8 -2.04699,-3 -2.04699,-3 -0.007,-1.22432 -0.007,-1.22432 3,-1.55136 3,-1.55136 v 0.56086 0.56087 l 2.02801,-1.08536 2.02801,-1.08536 -0.53511,-0.86582 -0.53511,-0.86583 3.90574,-3.334 3.90575,-3.334 8.35135,-4.97002 8.35136,-4.97002 5.25077,-4.70703 5.25076,-4.70703 5.37096,-3.07295 L 549.74345,375 h 1.58122 1.58122 l 2.54706,-1.16052 L 558,372.67897 v -1.77254 -1.77253 l 4.25,-3.43136 4.25,-3.43136 4.19385,-2.73132 4.19385,-2.73131 2.87894,-0.19932 2.87895,-0.19931 1.42721,-1.2235 1.4272,-1.22349 2.34182,-1.9284 2.34181,-1.92839 -0.66091,-1.06938 -0.66092,-1.06938 -1.08319,0.66945 -1.0832,0.66945 0.66399,-4.40314 0.66399,-4.40314 3.02364,-14.5 3.02363,-14.5 1.05251,-5.32204 1.05251,-5.32204 3.66216,-2.4687 3.66216,-2.46869 5.5,-3.61241 5.5,-3.61241 3.54608,-3.16003 3.54609,-3.16002 17.45391,-11.53656 17.45392,-11.53655 5.9313,-5.06741 5.9313,-5.0674 7.5687,-4.6124 7.5687,-4.6124 6.30653,-4.97047 L 694.11306,230 h 7.86191 7.86191 l 1.97569,-3.25 1.9757,-3.25 3.17489,-8 3.1749,-8 2.76663,-4.5 2.76663,-4.5 2.05864,-5.50501 2.05864,-5.505 6.48181,-12.995 6.48181,-12.99499 0.61505,-2.5 0.61505,-2.5 0.89704,-1.37812 0.89703,-1.37811 0.99569,0.61537 0.99568,0.61536 2.12328,4.26275 2.12329,4.26275 3.96752,5.5 3.96753,5.5 0.0253,1.58948 0.0253,1.58949 -2.59807,1.18376 -2.59807,1.18376 0.56669,1.47675 0.56668,1.47676 h -1.02763 -1.02763 l 0.49303,0.79775 0.49303,0.79774 -0.9035,1.45226 -0.9035,1.45225 -1.99098,-1.23379 -1.99098,-1.23378 -1.49117,0.57221 -1.49116,0.57222 -1.05209,3.18785 -1.05209,3.18785 -3.99628,7.95484 L 736,208.46224 v 1.78178 1.78178 l -5.5081,10.90261 -5.5081,10.90261 -0.60988,3.33449 -0.60988,3.33449 -3.38202,7.17187 L 717,254.84374 v 1.48432 1.48433 l 5.04245,3.62264 5.04245,3.62264 0.59223,1.54334 0.59224,1.54334 5.46312,2.41605 5.46312,2.41605 6.65372,4.42339 6.65373,4.42339 6.72575,5.93737 6.72575,5.93737 4.36817,2.31731 4.36817,2.31731 1.65455,-0.63491 L 778,297.06277 v -3.47237 -3.47237 l 0.87198,-0.53891 0.87199,-0.53892 -0.3424,-3.7701 -0.3424,-3.7701 -0.98603,-4.5 -0.98604,-4.5 -0.0451,-14 -0.0451,-14 -1.74844,-3.15886 -1.74845,-3.15885 -3.23951,-6.04184 -3.23951,-6.04185 -0.26049,-3.2993 -0.2605,-3.2993 -0.61482,-0.5 -0.61482,-0.5 -3.05265,-5.5 -3.05265,-5.5 -1.48146,-5 -1.48146,-5 -2.15155,-4.95067 -2.15155,-4.95067 1.92692,1.74384 1.92693,1.74384 0.6268,-1.63341 0.6268,-1.63341 -0.56226,-0.90976 -0.56226,-0.90976 1.30901,-0.0153 1.30902,-0.0153 -1.28184,-0.81338 -1.28184,-0.81338 4.85213,-0.11053 4.85214,-0.11052 1.73624,2.93922 L 769.11307,190 H 767.05654 765 v 0.5 0.5 l 2.07732,2.07732 2.07732,2.07732 1.40176,-0.53791 1.40175,-0.5379 2.8803,4.21058 2.8803,4.21059 1.5676,3.05913 1.56761,3.05914 -0.91167,1.44086 -0.91166,1.44087 -0.0153,-0.87244 -0.0153,-0.87245 -1.51233,1.25512 -1.51233,1.25513 1.06089,1.27829 1.06089,1.27829 -0.98014,0.60576 -0.98014,0.60576 -1.53353,-2.18943 -1.53354,-2.18943 -0.61764,1.60956 -0.61765,1.60956 -1.41724,-0.54385 L 769,213.78602 v 2.54797 2.54798 l 1.1517,0.71179 1.15171,0.71179 1.33504,-1.82578 1.33504,-1.82577 2.26326,-0.20774 2.26325,-0.20773 3.08699,-1.00271 3.08698,-1.0027 4.12071,6.13344 4.12071,6.13344 -0.20769,2 -0.2077,2 1.15514,-0.21838 1.15515,-0.21838 0.55762,1.45312 0.55761,1.45313 -1.71276,0.8854 -1.71276,0.88539 -1.75,-0.28165 -1.75,-0.28166 V 235.58848 237 h 2.3 2.3 l 1.2,1.2 1.2,1.2 v -0.82244 -0.82245 l 1.52417,1.26495 1.52416,1.26494 0.60859,-0.60859 0.60859,-0.60859 1.85648,2.36013 1.85647,2.36013 -0.0711,9.1164 -0.0711,9.1164 -1.60639,1.60639 -1.60639,1.60639 -0.20661,4.63317 -0.2066,4.63317 0.86445,1.5 0.86446,1.5 0.0938,-1.5 0.0938,-1.5 0.92031,2.29303 0.92031,2.29303 0.002,7.70697 0.002,7.70697 -0.67931,13.5 -0.67931,13.5 -0.68812,-3 -0.68811,-3 -0.11832,4.25 L 801,324 h -1 -1 v 1.44098 1.44099 l 1.19098,0.73606 1.19099,0.73607 0.4708,-1.41242 0.47081,-1.41242 3.77741,14.98537 3.77741,14.98537 0.0608,1.80902 0.0608,1.80901 -1,-0.61803 -1,-0.61803 v 0.94238 0.94239 l -2,0.52301 -2,0.52301 v 1.51206 1.51206 l -3.63478,2.24642 -3.63479,2.24642 1.63479,1.19538 1.63478,1.19539 v 1.15157 1.15158 l -3.79826,-0.60737 -3.79825,-0.60737 -1.32419,1.59555 -1.32419,1.59555 -1.62755,-0.01 -1.62756,-0.01 -5.19054,-2.41668 -5.19055,-2.41668 -6.80945,-4.36841 -6.80946,-4.36842 -9,-3.83221 -9,-3.83222 -3.52727,-3.87292 L 737.44546,346 h -2.13968 -2.13967 l -6.83306,-3.60128 -6.83305,-3.60128 -3.43166,-2.58817 -3.43165,-2.58817 1.18165,-0.39388 L 715,332.83333 V 331.39167 329.95 l -3.02081,-0.60416 -3.02081,-0.60416 -0.53821,-0.87084 L 707.88197,327 h 1.25901 1.25902 l -1.02927,-1.02927 -1.02927,-1.02927 -2.67779,1.38925 -2.67778,1.38925 -2.35526,-0.45024 -2.35527,-0.45024 -7.38768,-3.65974 L 683.5,319.5 l 0.22226,-1.16679 0.22227,-1.16679 -4.0419,-0.68287 -4.04189,-0.68287 -0.53736,-1.40034 -0.53736,-1.40034 -3.14301,-0.0302 -3.14301,-0.0301 -7.5,-3.76448 -7.5,-3.76448 0.24005,-1.17551 0.24005,-1.17551 -1.80896,-0.96812 -1.80895,-0.96812 -2.93591,0.0835 -2.9359,0.0835 -2.33026,-0.7396 -2.33027,-0.7396 L 637.5,302 l -2.32985,2.18878 -2.0996,-0.66639 -2.09959,-0.66638 0.50878,-0.82322 0.50877,-0.82322 -1.57604,-0.60479 L 628.83643,300 h -0.50155 -0.50155 l 0.40948,1.22843 0.40948,1.22843 -1.85677,1.99299 -1.85676,1.993 -2.06676,-1.29071 -2.06676,-1.29072 -0.55394,0.55394 -0.55393,0.55394 3.34894,1.40813 3.34895,1.40812 1.17095,-0.44933 1.17095,-0.44934 0.57641,2.20422 0.57642,2.20422 -1.8577,3.60234 -1.85769,3.60234 -3.56116,4.12843 -3.56116,4.12842 -2.52614,0.4829 L 614,327.72266 V 326.36133 325 h -0.93828 -0.93828 l -3.2795,2.99536 -3.2795,2.99536 3.25156,2.75464 3.25156,2.75464 -1.78378,3.23044 -1.78378,3.23045 -3.76513,4.47811 -3.76513,4.47811 -3.23487,-0.20855 L 594.5,351.5 l -0.82829,-1 -0.82829,-1 0.4545,2.82784 0.4545,2.82784 -2.37621,1.08268 -2.37621,1.08267 -0.11842,1.08949 -0.11842,1.08948 0.0982,0.68937 0.0982,0.68938 -4.22979,3.65602 -4.22979,3.65602 -5,2.89522 -5,2.89522 -1.79221,0.009 -1.7922,0.009 -1.52713,1.25 -1.52713,1.25 -2.04542,2.17458 -2.04542,2.17458 -1.54929,-0.59452 -1.54929,-0.59452 0.76201,1.23295 0.762,1.23296 -1.82554,2.01719 -1.82554,2.0172 -9.02242,5.53545 -9.02242,5.53546 -2.75,2.57142 -2.75,2.57143 v 1.82761 1.82761 l 2.99641,1.82222 2.99641,1.82223 -0.66308,0.66307 L 535.66667,411 h 1.25893 1.25894 l 2.35933,1.85585 2.35933,1.85585 -1.7016,2.99134 -1.7016,2.99135 -1.73184,2.34938 -1.73184,2.34939 -4.17827,-0.24654 -4.17827,-0.24653 -0.82458,1.29995 -0.82457,1.29996 -0.0153,1.75 L 526,431 h 1.94098 1.94099 l 0.65117,1.05362 0.65118,1.05363 -2.34216,3.43954 -2.34216,3.43954 -2.28138,0.007 -2.28139,0.007 -0.5756,1.5 -0.57561,1.5 z m 296.65271,-53.24965 -2.26294,0.18729 -6.49139,-3.57369 -6.49139,-3.57368 -1.71782,-1.521 -1.71782,-1.521 0.88581,-1.65515 0.88581,-1.65516 2.04385,-0.15395 2.04386,-0.15396 3.53816,-1.67897 L 810,372.77212 v -1.44508 -1.44507 l 0.91459,0.56524 0.91459,0.56525 0.44998,-1.25623 0.44998,-1.25623 2.06466,7 2.06466,7 0.5751,3.53153 0.5751,3.53154 z m -184.41648,-29.38129 -4.17076,1.48631 -0.58552,-1.52585 -0.58553,-1.52584 3.17886,-4.15184 3.17886,-4.15184 3.47672,-3.69506 3.47673,-3.69505 1.95044,2.47958 1.95044,2.47959 -0.59851,2.38467 -0.59851,2.38467 3.3668,2.0808 3.36681,2.0808 2.88196,0.13993 2.88197,0.13993 -9.5,0.80144 -9.5,0.80144 z M 625.75,258.09333 624,259.07037 v -2.71746 -2.71746 l 0.99148,-8.56773 0.99149,-8.56772 2.52014,-30 2.52014,-30 0.56134,-5.25811 0.56135,-5.25811 9.17703,9.18113 9.17703,9.18113 0.13465,1.07698 0.13465,1.07698 0.11535,1.25 L 651,189 h 2.43335 2.43334 l 5.22739,5.09164 5.2274,5.09164 -1.41074,0.92868 -1.41074,0.92867 2.44659,2.04917 2.44659,2.04917 -1.3247,0.81871 -1.32471,0.81871 0.68713,1.11181 0.68713,1.1118 h 1.70386 1.70385 l 0.98713,2.17367 0.98713,2.17367 1.5,0.21057 1.5,0.21058 4.46855,1.21315 4.46854,1.21314 -3.46854,2.83745 -3.46855,2.83745 -5.32816,3.2346 -5.32817,3.23459 -3.01202,-1.77925 -3.01203,-1.77924 -1.03166,1.03166 -1.03167,1.03167 -1.41904,-0.54454 -1.41904,-0.54453 0.15932,0.87268 0.15931,0.87268 -0.11842,1.75 L 656,231 l -1.75,0.0634 -1.75,0.0634 2.14767,0.86654 2.14768,0.86653 0.64376,1.04164 0.64377,1.04164 -6.29144,4.66437 -6.29144,4.66438 -4.5,2.16664 -4.5,2.16665 -4.5,4.25556 -4.5,4.25557 z"
         id="path15" />
    </g>
  </g>
</svg>
