<?xml version="1.0" encoding="UTF-8" standalone="no"?>
<!-- Created with Inkscape (http://www.inkscape.org/) -->

<svg
   version="1.1"
   id="svg1"
   width="439.93311"
   height="489.24561"
   viewBox="0 0 439.93311 489.2456"
   sodipodi:docname="wolf svg file_v3_page.svg"
   inkscape:version="1.4.2 (f4327f4, 2025-05-13)"
   xmlns:inkscape="http://www.inkscape.org/namespaces/inkscape"
   xmlns:sodipodi="http://sodipodi.sourceforge.net/DTD/sodipodi-0.dtd"
   xmlns="http://www.w3.org/2000/svg"
   xmlns:svg="http://www.w3.org/2000/svg">
  <sodipodi:namedview
     id="namedview1"
     pagecolor="#676767"
     bordercolor="#000000"
     borderopacity="0.25"
     inkscape:showpageshadow="2"
     inkscape:pageopacity="0.0"
     inkscape:pagecheckerboard="true"
     inkscape:deskcolor="#d1d1d1"
     inkscape:zoom="1.7854082"
     inkscape:cx="219.27758"
     inkscape:cy="242.80161"
     inkscape:window-width="1920"
     inkscape:window-height="1111"
     inkscape:window-x="-9"
     inkscape:window-y="-9"
     inkscape:window-maximized="1"
     inkscape:current-layer="svg1" />
  <defs
     id="defs1" />
  <g
     id="g1"
     style="display:inline"
     transform="translate(-484.79152,-142.8695)">
    <g
       id="g15"
       style="display:inline">
      <path
         id="path118"
         style="display:inline;fill:#ffffff;fill-opacity:1;stroke:none;stroke-opacity:1"
         d="m 745.83594,142.875 c -4.07682,0.6924 -7.23124,3.98248 -8.83956,7.64903 -11.07171,23.45944 -22.14342,46.91888 -33.21513,70.37831 -0.66242,0.1403 -1.46635,0.19146 -1.86237,-0.47325 -19.61153,-19.32532 -39.36038,-38.5135 -59.34165,-57.45604 -3.71247,-3.32193 -7.69397,-6.32589 -11.6202,-9.38907 -2.29104,3.42897 -6.2262,5.63076 -7.71484,9.61133 -1.29297,7.66241 -1.61187,15.43494 -2.43608,23.15191 -2.19278,23.56933 -4.13164,47.16582 -6.77792,70.69005 -0.85493,6.64375 -1.83346,13.27061 -2.80358,19.89828 -1.71882,1.31699 -3.54198,2.49733 -5.29476,3.77208 -6.22501,4.38691 -12.48738,8.73433 -18.63297,13.22206 -1.16738,1.83435 -1.64509,3.988 -2.35337,6.01094 -2.46614,8.12279 -3.43177,16.59475 -5.31303,24.85516 -1.22774,6.25231 -2.45548,12.50463 -3.68321,18.75694 -1.75295,2.72723 -4.93197,3.9084 -7.35907,5.89608 -27.72288,19.43988 -55.45147,38.86975 -83.14875,58.34611 -1.43819,4.83027 -0.44092,10.28866 2.5817,14.31597 6.35707,11.36076 12.31176,22.97437 19.58627,33.78559 4.4927,4.52508 10.3765,7.18436 15.73481,10.49238 10.68172,6.09384 21.32035,12.26218 32.08355,18.2088 2.53952,0.40978 4.93895,-0.79799 7.41622,-1.11637 20.21934,-4.38829 40.43867,-8.77659 60.658,-13.16488 3.58804,7.69019 7.4223,15.27158 11.02734,22.95117 -0.62237,2.38178 -1.90867,4.51775 -2.72681,6.83115 -2.72363,7.36463 -5.59799,14.67404 -8.31333,22.04473 -3.61078,9.66878 -7.18932,19.35511 -10.71572,29.05185 -0.15748,1.81334 1.43178,3.02876 2.57618,4.17578 24.88363,25.13567 49.73874,50.30095 74.31054,75.74219 0.73248,1.59212 3.58336,1.20488 3.74219,-0.58398 0.0983,-1.70841 0.29837,-3.41527 0.25,-5.12891 13.09294,-7.23001 26.26632,-14.37228 38.55775,-22.92412 39.57774,-26.16032 79.16085,-52.31334 118.73522,-78.47822 2.79499,-2.36116 3.65765,-6.06301 5.07226,-9.27344 11.71615,-28.38932 23.4323,-56.77865 35.14844,-85.16797 11.18684,-0.38107 22.37374,-0.76048 33.56055,-1.14258 -1.75287,-5.21123 -1.62376,-11.01886 -4.44302,-15.86469 -18.2355,-30.28617 -36.47452,-60.57022 -54.71714,-90.8521 4.53877,-0.74077 9.12032,-1.32462 13.57032,-2.50391 1.82692,-1.00896 3.21988,-2.59682 4.75781,-3.97266 2.98397,-0.44122 4.89632,-4.33714 3.16601,-6.88867 -1.13536,-2.41269 -3.80061,-3.38408 -5.67462,-5.09056 -18.92116,-14.9617 -37.77228,-30.01623 -56.66449,-45.01252 -1.0699,-1.15044 -1.70953,-2.62227 -2.62729,-3.88983 -22.72123,-35.48072 -45.2944,-71.05808 -68.27454,-106.37162 -1.64047,-2.42954 -3.98141,-4.80181 -7.05593,-5.08273 -0.30802,-0.0195 -0.61786,-0.0173 -0.92578,-0.01 z" />
      <path
         id="path17"
         style="display:inline;fill:#167c81"
         d="m 745.68502,152.87258 c -0.0149,0.004 -0.12441,0.0765 -0.16601,0.10547 -0.0728,0.0506 -0.12491,0.0911 -0.17188,0.13086 0.11344,-0.058 0.22386,-0.13135 0.33203,-0.22657 l 0.004,-0.004 0.002,-0.002 0.002,-0.002 v -0.002 z m -1.11133,1.08594 c -0.39079,0.49238 -0.74438,1.01146 -1.07812,1.55078 -0.87269,1.42325 -1.50748,2.9606 -2.15039,4.49804 -1.13521,2.82227 -2.0696,5.70855 -2.80664,8.66211 -0.78171,3.11698 -1.51629,6.24849 -2.48438,9.31446 -0.87178,2.69972 -1.74872,5.41676 -3.03125,7.95507 -1.22014,2.41736 -2.58868,4.74383 -4.11719,6.98047 -1.1542,1.87407 -2.27602,3.78645 -3.16796,5.80078 -0.99532,2.43288 -1.80839,4.92786 -2.5879,7.4375 -1.0567,3.15952 -2.18048,6.30957 -3.70117,9.28125 -1.54261,2.84412 -3.027,5.71952 -4.67383,8.50586 -1.04773,1.66836 -2.16095,3.29419 -3.24414,4.93555 -2.86049,4.33453 -6.43247,4.46408 -6.70117,1.15234 -0.16659,-0.009 -0.33367,-0.0179 -0.5,-0.0312 -1.40622,-0.0928 -2.81052,-0.24017 -4.2207,-0.23437 -1.34744,0.0542 -2.6989,0.11498 -4.03125,0.33789 -1.17897,0.23149 -2.35037,0.5149 -3.48438,0.91602 -0.86826,0.32955 -1.58595,0.84515 -2.28515,1.45703 -1.17142,0.95723 -2.32377,1.94202 -3.60938,2.74804 -1.47155,0.98037 -2.95689,1.94128 -4.4707,2.85547 -1.41908,0.94898 -2.80709,1.95248 -4.08398,3.08789 -1.3846,1.28855 -2.62206,2.71441 -3.81641,4.17969 -0.97906,1.13599 -1.97824,2.24766 -3.08984,3.25781 -0.96264,0.94203 -1.97287,1.84206 -3.23047,2.37305 -1.30402,0.55578 -2.64039,1.03221 -3.9668,1.53125 -1.52163,0.61072 -2.95625,1.41849 -4.27344,2.39648 -1.47231,1.09498 -2.89554,2.26228 -4.23633,3.51563 -0.93587,0.94315 -1.83288,1.91967 -2.75195,2.87891 -1.30749,1.36515 -2.67516,2.67499 -4.16016,3.84765 -1.76725,1.38037 -3.55067,2.74515 -5.50195,3.86133 -1.98926,1.16643 -4.04542,2.20371 -6.04687,3.34766 -2.53516,1.52523 -5.04498,3.09308 -7.56641,4.64062 -2.31568,1.46675 -4.57045,3.02449 -6.91406,4.44727 -0.81661,0.49365 -1.64249,0.97123 -2.45313,1.47461 -1.45771,0.9052 -2.85297,1.90934 -4.31836,2.80273 -2.07851,1.30692 -4.23005,2.48906 -6.42578,3.58789 -2.3766,1.24064 -4.76191,2.46565 -7.05664,3.85547 -1.70255,1.04041 -3.49238,1.97169 -5.03906,3.24219 -1.07984,0.9639 -1.42986,1.62787 -1.8125,3.05859 -0.74591,2.2889 -1.41414,4.60226 -1.98438,6.94141 -0.4389,1.57441 -0.95608,3.12519 -1.32617,4.71875 -0.40176,1.44786 -0.77549,2.9033 -1.17578,4.35156 -0.47796,1.78208 -1.08037,3.52584 -1.64062,5.2832 -0.60457,1.81644 -1.28725,3.61378 -1.41211,5.54688 -0.23955,1.83409 -0.47831,3.68191 -0.42774,5.53515 0.0767,2.08553 0.33932,4.16558 0.26172,6.25586 -0.0442,0.4675 -0.0641,0.93782 -0.13281,1.40235 -0.30526,2.06508 -1.14917,4.02085 -2.07617,5.87109 -1.0498,1.86884 -2.18953,3.69277 -3.5586,5.34766 -0.0636,0.0769 -0.12742,0.15 -0.1914,0.2207 1.46222,0.97981 0.79319,1.25623 -0.59766,2.87695 -1.53737,1.65187 -3.12258,3.26578 -4.94531,4.60938 -1.69918,1.26996 -3.50439,2.38653 -5.16992,3.69922 -1.08109,0.95749 -2.04319,2.03392 -3.13086,2.98437 -1.38772,1.18095 -2.85677,2.26119 -4.44532,3.16016 -2.30697,1.3408 -4.68562,2.54574 -7.16796,3.53125 -2.47849,1.05953 -5.02495,2.0357 -7.30469,3.49219 -1.28756,0.86363 -2.51396,1.8049 -3.63867,2.87304 0.36474,0.006 0.69653,0.0775 0.91015,0.3418 2.28918,2.83253 1.07475,3.83993 -0.88867,5.08398 -2.34583,1.45653 -4.74293,2.82985 -7.15039,4.18164 -2.53966,1.40624 -5.10942,2.75463 -7.73047,4.00391 -1.82226,0.90859 -3.62476,1.85676 -5.38086,2.88867 -1.77903,1.12677 -3.50606,2.33104 -5.2793,3.4668 -1.98974,1.2649 -3.9512,2.58553 -6.04882,3.66992 -1.84657,0.93073 -3.72691,1.80092 -5.53907,2.79492 -1.57143,1.02757 -3.11732,2.09116 -4.66211,3.15821 -1.66088,1.09742 -3.38975,2.08823 -5.19726,2.92578 -1.14675,0.50659 -2.30539,0.9681 -3.24024,1.83789 -0.42844,0.36646 -0.9255,0.73329 -1.15429,1.26562 -0.12157,1.12192 0.29707,2.26783 0.56445,3.3418 0.32543,0.99933 0.70877,1.93737 1.38281,2.76367 0.89624,1.37016 1.98662,2.60623 2.89844,3.9668 1.30188,1.84101 2.49741,3.75132 3.74219,5.63086 0.96719,1.40979 1.95922,2.80692 3.07617,4.10351 1.05533,1.28957 1.94255,2.69149 2.44922,4.29297 0.28182,0.88551 0.54866,1.7797 0.77539,2.68164 0.9488,0.21857 1.07724,0.78356 0.79102,2.04102 -0.0274,0.0917 -0.0553,0.18399 -0.084,0.27539 -0.0163,0.12426 -0.0373,0.24698 -0.0547,0.37109 -0.025,0.13109 -0.0512,0.25612 -0.082,0.37305 0.0832,0.41854 0.19535,0.83247 0.41406,1.20313 0.36161,0.59696 0.77512,1.17209 1.26954,1.66601 0.20715,0.33989 0.98098,0.54693 1.3125,0.74024 0.74361,0.34003 1.5055,0.63523 2.26953,0.92578 1.19939,0.45103 2.38039,0.94643 3.4375,1.68554 1.29476,0.90279 2.49097,1.93149 3.66406,2.98633 1.3168,1.07799 2.64692,2.14615 4.11914,3.00977 2.01449,1.21819 4.08439,2.33267 6.21875,3.32812 1.47354,0.72802 2.95195,1.46901 4.08203,2.69922 1.22236,1.20743 2.4453,2.41521 3.72461,3.5625 1.68692,1.40441 3.4718,2.66947 5.39453,3.73633 2.06677,1.16371 4.18654,2.24099 6.39453,3.11328 0.12272,0.0491 1.13236,0.43617 1.19922,0.54492 l 0.002,0.002 0.002,0.002 v 0.002 0.002 0.002 0.002 c -0.11053,0.73428 -0.19163,1.35436 -0.26367,1.875 0.014,0.002 0.0272,0.005 0.041,0.008 1.27359,-0.0311 2.52156,-0.41015 3.77149,-0.62109 1.00093,-0.20476 2.0116,-0.3822 2.95312,-0.79688 1.38407,-0.50599 2.78864,-0.96025 4.2207,-1.3125 2.0539,-0.50987 4.12512,-0.95323 6.22852,-1.20312 2.48444,-0.37551 4.96107,-0.81758 7.46094,-1.08398 2.23443,-0.19074 4.4767,-0.34518 6.68359,-0.76172 1.71101,-0.3057 3.42125,-0.62024 5.12305,-0.97266 2.01401,-0.50013 4.03268,-0.99055 6.07812,-1.34766 2.38944,-0.4375 4.8005,-0.73865 7.1875,-1.19336 1.89488,-0.33935 3.77656,-0.74902 5.66211,-1.13671 0.10566,-0.0673 0.20171,-0.12994 0.28321,-0.18164 1.00036,-0.65813 1.9377,-1.40755 3,-1.96875 0.70358,-0.3717 0.92678,-0.43675 1.65429,-0.72266 1.44413,-0.51111 2.96481,-0.70932 4.48242,-0.8457 0.83587,-0.0304 3.06665,-0.20064 3.44336,0.77929 0.0735,0.19127 0.14063,0.37063 0.19922,0.53907 0.26326,-0.0796 0.52856,-0.15095 0.79883,-0.21094 0.0113,-0.061 0.0247,-0.12093 0.0391,-0.18164 0.10101,-0.42753 0.16256,-0.90374 0.44727,-1.23828 0.56379,-0.66245 1.34323,-1.10435 2.01562,-1.65625 0.49561,-0.0282 0.99264,-0.097 1.48829,-0.11524 0.16521,-0.006 0.32887,-0.006 0.49414,0.002 0.35263,0.0177 0.68827,0.16518 1.02734,0.26368 1.49854,0.43521 2.36684,1.07569 3.5293,2.09765 0.70956,0.70138 1.24953,1.53576 1.80664,2.35547 1.61466,2.37574 1.44275,4.42163 0.43554,5.49024 0.3452,0.41086 0.68749,0.82336 1.02539,1.24023 1.44089,1.84676 2.89604,3.68801 4.18165,5.64844 1.31715,2.00331 2.62172,4.02023 3.6582,6.1875 0.96089,2.08832 1.9056,4.22161 2.24805,6.51367 0.34368,2.02701 0.76768,4.05859 0.67578,6.12695 -0.0974,1.9309 -0.23893,3.86351 -0.61524,5.76367 -0.58773,2.89082 -1.40406,5.72414 -2.28906,8.53711 -0.4398,1.37028 -0.89189,2.73771 -1.36328,4.09766 -0.27051,2.39517 -0.57122,4.78561 -1.0625,7.14844 -0.6701,3.85151 -1.42455,7.70208 -2.86328,11.35547 -0.29319,0.7682 -0.56477,1.54481 -0.87891,2.30468 -1.60878,3.8914 -3.7314,7.58493 -6.33008,10.89844 -0.57188,0.60742 -1.03618,1.16879 -1.53515,1.5957 -0.14256,0.18137 -0.28341,0.36368 -0.41993,0.54883 -0.77572,0.97122 -1.56196,1.90839 -1.94335,3.11914 -0.0563,0.15129 -0.25774,0.51913 -0.27344,0.70703 -0.0339,0.40518 0.1191,0.80823 0.1914,1.19922 0.002,0.006 0.17989,0.64107 0.20899,0.70118 0.43293,0.89473 1.18092,1.61496 1.82226,2.35351 1.43432,1.52765 2.99356,2.92477 4.56055,4.31445 1.60088,1.38055 3.22594,2.73406 4.86719,4.06641 2.20348,1.80373 4.44309,3.56604 6.54492,5.49023 1.75387,1.5945 3.50868,3.1876 5.20313,4.84571 1.29925,1.21347 2.64155,2.37814 3.95312,3.57812 1.32366,1.19164 2.72374,2.296 4.02539,3.51172 1.39682,1.44062 2.69961,2.98148 3.76172,4.68945 0.80992,1.33481 1.52306,2.72504 2.27734,4.0918 0.64237,1.23446 1.21012,2.50318 1.84766,3.74024 0.0158,0.0297 0.0311,0.06 0.0469,0.0898 0.0607,0.009 0.12996,0.0445 0.19922,0.11328 0.0385,0.0384 0.0766,0.075 0.11524,0.11328 0.30515,0.29289 0.6127,0.5844 0.92187,0.87305 0.19401,0.18091 0.39364,0.35631 0.57032,0.55469 0.2001,0.22468 0.0836,0.4416 -0.0996,0.40039 0.24972,0.21076 0.49401,0.42683 0.73046,0.65234 0.24878,0.24031 0.49994,0.4785 0.71094,0.75391 0.0373,0.0486 0.0575,0.085 0.0879,0.13476 0.0102,0.0168 0.0198,0.0328 0.0273,0.0488 0.28463,0.14593 0.57474,0.28358 0.86523,0.42578 1.44282,0.71747 2.87257,1.45865 4.28516,2.23438 2.02555,1.21839 3.94332,2.60856 5.6582,4.24218 2.01249,1.9665 3.99796,4.07816 5.13672,6.68946 0.31402,0.86409 0.72156,1.8914 0.72656,2.87695 0.0301,0.0116 0.0598,0.0236 0.0898,0.0352 0.54652,0.19294 1.09631,0.37697 1.64648,0.5625 -0.16761,-1.12647 -0.21017,-2.25174 0.0176,-3.38477 0.25055,-1.61767 0.6161,-3.21398 1.15039,-4.76367 0.70466,-2.12621 1.45918,-4.23589 2.70898,-6.11719 1.50171,-2.31956 3.06575,-4.59821 4.69532,-6.83008 2.0255,-2.6819 4.02625,-5.38297 6.03906,-8.07421 1.64972,-2.1612 3.31302,-4.31692 4.8164,-6.58399 0.95318,-1.61831 1.87135,-3.25566 2.8125,-4.88086 1.08217,-1.98296 2.14421,-3.97855 3.25196,-5.94726 1.34618,-2.31335 2.67859,-4.63491 4.00586,-6.95899 1.17338,-2.10116 2.34943,-4.19838 3.41406,-6.35742 1.09709,-2.07903 2.20972,-4.15177 3.19922,-6.28516 0.88897,-1.79235 1.75339,-3.59679 2.56054,-5.42773 0.85169,-2.05554 1.76503,-4.09522 2.31446,-6.25977 0.65389,-2.38921 1.25054,-4.80136 2.44531,-6.99609 0.95775,-1.75169 2.07917,-3.394 3.32227,-4.95703 1.46211,-1.87312 2.91249,-3.75998 4.13476,-5.80274 0.22338,-0.37954 0.44327,-0.75939 0.66016,-1.14257 -0.34902,-0.40909 -0.4675,-1.0277 -0.73828,-1.50782 -0.051,-0.33783 -0.13055,-0.67272 -0.15235,-1.01367 -0.0853,-1.33673 0.39523,-2.59281 0.73438,-3.85937 0.45101,-1.5189 0.97862,-3.00188 1.59961,-4.46094 1.07218,-2.48757 2.3043,-4.89922 3.50586,-7.32617 1.82306,-3.55634 3.84073,-7.01231 6.01562,-10.36524 1.71037,-2.47367 3.57072,-4.83307 5.29688,-7.29492 1.52631,-2.26509 3.03078,-4.54479 4.63281,-6.75781 1.28138,-1.87506 2.41806,-3.84061 3.37891,-5.90039 1.21939,-2.49715 2.43267,-5.00324 3.93945,-7.34375 1.05448,-1.7594 2.16788,-3.4924 3.52344,-5.03906 0.50615,-0.57753 1.02078,-1.0263 1.52734,-1.35938 0.0297,-0.0545 0.0595,-0.10795 0.0898,-0.16211 -0.33058,-0.19105 -0.50618,-0.69635 -0.2207,-1.39258 0.14636,-0.35694 0.295,-0.71178 0.4375,-1.07031 0.47959,-1.1356 0.9175,-2.29565 1.54883,-3.35937 0.17243,-0.27237 0.43736,-0.74777 0.70312,-0.97266 0.0692,-0.0586 0.1379,-0.13695 0.21094,-0.20703 -0.14287,-0.0296 -0.29094,-0.0617 -0.32617,-0.0762 l -0.002,-0.002 h -0.002 -0.002 v -0.002 h -0.002 c -0.092,-1.60882 -0.34801,-1.5976 0.41211,-1.625 0.46795,-0.002 0.93622,0.0203 1.40429,0.0293 0.0155,-0.002 0.0311,-0.003 0.0469,-0.006 0.008,-9.1e-4 0.0157,-0.003 0.0234,-0.004 -0.007,-0.0245 -0.0145,-0.0471 -0.0137,-0.0723 v -0.002 l 0.002,-0.002 c 0.008,-0.003 0.0262,-0.005 0.041,-0.006 -0.008,-0.0106 -0.0148,-0.0215 -0.0234,-0.0312 0.005,-0.009 0.009,-0.02 0.0137,-0.0293 l -0.002,-0.002 -0.002,-0.002 -0.002,-0.004 v -0.008 c -0.007,-0.0221 0.004,-0.0455 0.006,-0.0684 0.005,-0.004 0.0106,-0.009 0.0156,-0.0117 0.0127,-0.008 0.0281,-0.0119 0.043,-0.0156 v -0.002 -0.002 -0.002 l 0.002,-0.002 v -0.002 -0.002 -0.006 l 0.002,-0.002 0.002,-0.002 0.002,-0.002 0.002,-0.0117 v -0.004 l 0.002,-0.004 h 0.002 0.002 v -0.01 l 0.002,-0.0117 h 0.002 l 0.002,-0.01 h 0.002 v -0.002 h 0.002 c 0.01,-0.0163 0.0298,-0.0301 0.0625,-0.0351 0.0194,-0.003 0.0378,-0.007 0.0566,-0.0117 -0.0359,-0.004 -0.053,-0.0287 -0.0488,-0.0527 -0.0151,-0.002 -0.0274,-0.006 -0.0351,-0.0137 -0.0191,-0.0248 -0.009,-0.069 0.0488,-0.0859 0.0279,-0.008 0.0124,-0.005 0.043,-0.0137 0.0347,-0.0101 0.0687,-0.0222 0.10352,-0.0312 0.0529,-0.0284 0.0917,-0.0413 0.15625,-0.0664 0.14434,-0.0566 0.22574,-0.0807 0.37891,-0.13086 0.31063,-0.0964 0.62171,-0.19928 0.91992,-0.33008 l 22.04297,-44 -1.0918,-1.72656 -1.0918,-1.73047 -9.89648,-5.34375 -9.89649,-5.34375 -14.25,-7.5 -14.25,-7.50782 v 3.20899 3.21094 l 1.51172,10.13086 1.51172,10.125 3.40235,22.5 3.375,22.30664 v 0.01 c 0.0263,0.0319 0.0461,0.0784 0.0547,0.14063 0.006,0.0447 0.0117,0.0898 0.0156,0.13476 0.0457,0.0212 0.0908,0.0423 0.13672,0.0625 0.0159,0.002 0.0332,0.007 0.0508,0.0117 0.20766,0.0548 0.41536,0.10959 0.61719,0.1836 0.15155,0.0568 0.30573,0.11005 0.44531,0.19335 0.13602,0.0811 0.14949,0.18819 0.0918,0.24415 0.20836,0.037 0.21975,0.22849 0.0566,0.27539 -0.0292,0.0634 -0.11952,0.1 -0.24805,0.0508 -0.0254,-0.01 -0.0494,-0.0192 -0.0742,-0.0293 0.0193,0.0115 0.037,0.0248 0.0547,0.0391 v -0.002 c 0.0487,0.0391 0.076,0.0623 0.0859,0.0742 l 0.002,0.002 0.002,0.0117 v 0.0117 0.008 0.002 l -0.002,0.002 h -0.002 c -0.032,0.007 -0.1714,-0.015 -0.28906,0.11914 h -0.002 v 0.002 c -0.0187,-0.006 -0.0363,-0.0145 -0.0547,-0.0215 -0.0567,-0.0213 -0.11507,-0.0375 -0.17187,-0.0586 -0.0251,-0.01 -0.0509,-0.0182 -0.0762,-0.0273 0.0231,0.0158 0.0464,0.0311 0.0645,0.043 0.0526,0.0347 0.10845,0.0655 0.16015,0.10156 0.0116,0.008 0.0219,0.0164 0.0332,0.0254 0.146,0.1123 0.12397,0.23277 0.0254,0.26367 0.0997,0.0449 0.20011,0.0887 0.30078,0.13086 h 0.002 c 1.42987,0.59928 0.97932,2.02 -0.38672,1.59375 -0.3093,0.2105 -0.65799,0.33881 -1.00976,0.45899 -0.18452,0.24515 -0.3874,0.47742 -0.57617,0.71875 -0.0946,0.11687 -0.18755,0.23505 -0.28125,0.35351 -0.28136,0.49065 -0.53458,1.00014 -0.79297,1.50196 0.0692,0.0372 0.1374,0.0744 0.20508,0.11328 0.003,0.002 0.008,0.006 0.01,0.008 l 0.002,0.002 0.002,0.002 0.002,0.01 v 0.002 l 0.0117,0.002 v 0.002 0.002 0.002 l 0.0117,0.002 c 0.003,0.0484 -0.0864,0.12965 -0.11133,0.1875 -0.0265,0.0448 -0.0551,0.0902 -0.082,0.13477 3e-4,0.0232 -0.0207,0.0492 -0.0469,0.0762 -0.0789,0.12947 -0.15879,0.25879 -0.24023,0.38672 -0.01,0.0212 -0.0194,0.0412 -0.0293,0.0625 -0.19748,0.42372 -0.22724,0.51991 -0.40234,0.96289 -0.30225,0.74764 -0.47649,1.54196 -0.77149,2.29101 -0.005,0.0494 -0.0145,0.0937 -0.043,0.10547 -0.0384,0.0932 -0.078,0.18594 -0.1211,0.27735 -0.19661,-0.0918 -0.36901,-0.16724 -0.51953,-0.23047 -0.12692,0.24982 -0.24896,0.50204 -0.37305,0.7539 -0.006,0.0115 -0.0118,0.0237 -0.0176,0.0352 1.33698,0.44623 1.89756,2.3207 0.19531,4.41992 -0.073,0.0901 -0.14575,0.17943 -0.21875,0.26953 -0.44466,0.51641 -0.7056,1.15453 -1.0293,1.74805 -0.47464,1.07245 -0.85772,2.1791 -1.28906,3.26953 -0.47914,1.14706 -0.91087,2.31639 -1.5,3.41406 -0.61015,1.35259 -1.19253,2.71645 -1.89453,4.02539 -0.68606,1.36376 -1.45128,2.68735 -2.33008,3.9375 -0.78724,1.1407 -1.61398,2.25545 -2.34961,3.42969 -0.49809,0.95465 -0.9491,1.93151 -1.32031,2.94336 -0.52373,1.38763 -1.09088,2.76177 -1.77344,4.08008 -0.43911,0.88077 -0.93246,1.72496 -1.46875,2.54492 0.48398,0.31508 0.96361,0.63187 1.3125,1.08203 0.26256,0.33878 0.16302,0.84678 0.16602,1.27539 0.007,0.91463 -0.63036,1.98576 -0.89454,2.84571 -0.69467,1.69282 -1.42727,3.37105 -2.23046,5.01562 -0.70158,1.45009 -1.43949,2.88093 -2.18165,4.31055 -0.93278,1.7616 -1.88988,3.5115 -2.94921,5.20117 -1.30754,2.08587 -2.62838,4.1619 -3.95704,6.23437 -1.36581,2.05976 -2.8492,4.03978 -4.15625,6.13868 -1.30539,1.98687 -2.55121,4.01817 -3.74414,6.07421 -0.99715,1.76755 -1.8981,3.58697 -2.96875,5.3125 -0.85285,1.38843 -1.62786,2.8198 -2.42187,4.24219 -0.85325,1.54586 -1.6789,3.10805 -2.60352,4.61328 -0.88613,1.50469 -1.80836,2.98542 -2.6875,4.49414 -0.72411,1.27435 -1.39495,2.58057 -1.93359,3.94532 -0.49861,1.32841 -0.95262,2.67392 -1.48242,3.99023 -0.43344,1.01481 -0.84065,2.04208 -1.11524,3.11328 -0.28105,0.96828 -0.57909,1.93127 -0.83007,2.90821 -0.28176,1.01649 -0.54716,2.04231 -1.0293,2.98828 -0.4726,1.03651 -0.91729,2.0853 -1.48828,3.07422 -0.20488,0.36506 -0.40925,0.72837 -0.61719,1.09179 0.24919,0.28154 0.45911,0.60831 0.71094,0.88672 0.047,0.52526 0.18067,1.05049 0.13867,1.57617 -0.073,0.91306 -1.07772,1.95126 -1.61524,2.66211 -0.72357,0.86294 -1.41232,1.75774 -2.17187,2.58985 -0.17931,0.1896 -0.35774,0.37677 -0.53906,0.56445 0.0869,0.80333 -0.23571,1.81367 -1.16407,2.85351 -0.3728,0.41759 -0.7307,0.84866 -1.08593,1.28125 -0.55574,0.74534 -6.15992,11.97752 -6.22966,11.9996 -0.0363,0.0179 0.86635,-16.15183 0.86635,-16.15183 l 4.02343,-25 7.90625,-29.29492 11.53125,-46.41992 -0.5,-1.30078 -0.49804,-1.30274 -23.53321,-17.52734 -23.51953,-17.52149 c -0.63545,0.38217 -1.2567,0.78836 -1.86328,1.21485 -0.23821,0.1666 -0.85235,0.59793 -1.11133,0.77343 -0.2354,0.15952 -0.38759,0.24562 -0.60156,0.40625 -0.0774,0.0581 -0.13052,0.10667 -0.19922,0.16797 -0.32093,0.28642 -0.63301,0.16254 -0.59765,-0.0918 -0.18801,-0.0242 -0.37931,-0.0409 -0.56836,-0.0566 -0.3115,-0.0255 -0.62171,-0.051 -0.93164,-0.0918 -0.081,-0.017 -0.16844,-0.0202 -0.25,-0.0371 -0.0158,0.0982 -0.0317,0.1969 -0.0488,0.29492 0.26532,1.61165 -0.39799,3.49129 -2.66211,4.54492 -1.68655,0.78485 -3.50788,1.15941 -5.32422,1.52735 -2.5184,0.59577 -4.99279,1.35279 -7.51953,1.91211 -3.34283,0.71834 -6.70085,1.41069 -9.91992,2.58984 -3.19253,1.144 -6.31677,2.48795 -9.58399,3.41211 -1.83171,0.45273 -3.63732,0.83676 -5.51758,1.0332 -1.22533,0.12805 -2.22726,0.14101 -3.45898,0.19141 -0.64299,0.0263 -1.28481,0.0563 -1.92774,0.084 -4.07768,0.19614 -8.15032,0.47484 -12.22656,0.69727 -3.27989,0.1591 -6.5673,0.32345 -9.81445,0.8418 -2.01456,0.33742 -4.02347,0.71246 -6.06836,0.8164 -2.41537,0.15186 -4.82718,0.36713 -7.22461,0.70313 -3.07577,0.4092 -6.18515,0.74108 -9.17578,1.60156 -2.02114,0.6404 -3.92421,1.53817 -5.74414,2.62695 -0.35284,0.16731 -0.69578,0.35758 -1.0586,0.50196 -1.529,0.60847 -3.19695,0.68693 -4.79101,0.31836 -1.5448,-0.37663 -3.05066,-0.8935 -4.41992,-1.71875 -0.94217,-0.58104 -1.85637,-1.20423 -2.83985,-1.71485 -1.37082,-0.69195 -2.70959,-1.44437 -4.05859,-2.17773 -1.56273,-0.92079 -3.15147,-1.80215 -4.64648,-2.83203 -0.61206,-0.39739 -1.22465,-0.85425 -1.87891,-1.1836 -0.80109,-0.40326 -1.65887,-0.68836 -2.45117,-1.11133 -1.98748,-0.92159 -3.93715,-1.94128 -5.6875,-3.27148 -2.07313,-1.6493 -3.94509,-3.29197 -4.35547,-6.07227 -0.0279,-0.40611 -0.0855,-0.81169 -0.084,-1.21875 0.007,-1.80908 0.72217,-3.50898 1.63086,-5.03711 0.96246,-1.4708 2.13305,-2.77218 3.14258,-4.21093 0.87619,-1.22258 1.73287,-2.46066 2.68164,-3.62891 0.8627,-1.09376 1.76817,-2.15069 2.6211,-3.25195 0.6835,-0.95654 1.13239,-2.0598 1.64257,-3.11328 0.61924,-1.37028 1.15214,-2.78353 1.88672,-4.09766 0.89923,-1.33794 1.95382,-2.55164 2.91602,-3.84375 0.087,-0.12598 0.16017,-0.22969 0.2207,-0.31445 -0.36861,-0.32749 -0.79252,-0.6159 -1.10547,-0.94141 -0.95587,-0.68839 -1.20742,-0.8885 -2.44726,-1.05273 -1.73803,-0.43427 -3.38366,-1.09075 -4.85938,-2.12696 -2.01553,-1.47497 -3.3775,-3.0483 -3.65429,-5.63867 0.0922,-0.60077 0.10975,-1.21794 0.27539,-1.80273 0.35703,-1.26048 1.57853,-2.36907 2.50976,-3.22071 1.01122,-0.83699 2.0992,-1.56172 3.20508,-2.26757 0.79085,-0.48871 1.59569,-0.95567 2.33984,-1.51563 0.95783,-0.71338 1.91983,-1.42971 2.94532,-2.04297 0.98894,-0.62259 2.0163,-1.17936 3.02148,-1.77539 0.80358,-0.52745 1.59187,-1.08448 2.25195,-1.78906 0.82249,-0.83789 1.52555,-1.78204 2.2168,-2.72852 1.0681,-1.33424 2.15521,-2.66193 3.36523,-3.87109 1.27364,-1.28254 2.58592,-2.52557 4.03516,-3.61133 1.39428,-1.05805 2.81122,-2.10149 4.33399,-2.96875 1.52813,-0.83996 3.11257,-1.58032 4.75195,-2.17773 1.41827,-0.55574 2.82348,-1.13477 4.1914,-1.80664 1.07219,-0.57886 2.0854,-1.25732 3.04102,-2.01368 1.16638,-1.06317 2.20049,-2.2216 3.08984,-3.53125 1.32235,-1.80593 2.76568,-3.50206 4.60743,-4.80468 1.78089,-1.29547 3.67677,-2.4062 5.66211,-3.36133 1.29406,-0.64146 2.60766,-1.25798 3.75976,-2.14258 1.22515,-0.93592 2.27874,-2.08541 3.44531,-3.0918 1.57445,-1.52047 3.28023,-2.89207 5.05274,-4.17578 1.12221,-0.80943 2.32801,-1.5333 3.32226,-2.50195 0.78449,-0.87494 1.42518,-1.85447 2.05664,-2.84375 0.9078,-1.48539 1.66946,-3.05548 2.64649,-4.5 1.27822,-1.96041 2.42916,-4.00393 3.75,-5.93555 1.59729,-2.17526 3.28009,-4.28423 4.82226,-6.5 1.25793,-1.74098 2.50767,-3.48868 3.74805,-5.24218 1.04813,-1.53894 2.06476,-3.09866 3.11719,-4.63477 1.12724,-1.62172 2.22336,-3.26576 3.25,-4.95313 1.13621,-1.9035 2.27949,-3.79825 3.70898,-5.50195 0.99864,-1.28062 1.94987,-2.59894 3.07617,-3.77344 1.0973,-1.21138 2.28375,-2.35726 3.85938,-2.91601 0.35621,-0.0958 0.70769,-0.21951 1.07031,-0.28711 0.32922,-0.0613 0.65897,-0.087 0.98828,-0.0879 0.98793,-0.003 1.96924,0.23626 2.9043,0.54883 1.29259,0.44184 2.57861,0.90758 3.86328,1.37109 1.6002,0.62145 3.2149,1.20282 4.79688,1.87109 1.60041,0.63867 3.20662,1.2626 4.82812,1.84571 1.5657,0.51264 3.11521,1.07663 4.58789,1.82226 1.70895,0.85159 3.43367,1.66444 5.18164,2.4336 1.70074,0.70824 3.42018,1.37571 5.08008,2.17773 1.38837,0.65278 2.8182,1.20851 4.24414,1.77344 1.57632,0.69953 3.09872,1.49492 4.59961,2.34375 1.23892,0.63428 2.58068,1.03774 3.76953,1.76953 1.12079,0.69418 2.23896,1.39656 3.21875,2.28711 0.93977,0.87694 1.93873,1.69836 3.00391,2.41797 0.66097,0.41579 1.34124,0.79763 2.0332,1.1582 0.64228,0.13154 1.28143,0.2776 1.91406,0.45117 1.14078,0.35403 2.28496,0.72892 3.35547,1.26367 0.68549,0.37277 1.35739,0.773 1.97657,1.25 0.51655,0.38122 1.05957,0.71673 1.62304,1.02344 0.096,0.0335 0.1926,0.0673 0.28906,0.0996 1.10091,0.36839 1.9333,0.86943 2.52344,1.43164 0.10561,0.0448 0.21316,0.0864 0.32227,0.12305 0.24419,-0.6396 0.25245,-0.62689 1.0664,-1.19727 0.26046,0.0878 0.54342,0.13032 0.80664,0.21289 0.23655,-0.54245 0.63599,-0.80547 1.0254,-0.8125 0.20474,-0.004 0.40661,0.0646 0.58007,0.20118 0.0454,-0.0105 0.091,-0.0201 0.13672,-0.0234 0.61359,-0.0446 1.23379,0.55765 1.17188,1.76953 -0.0432,0.84575 -0.0712,1.69755 -0.14844,2.54297 0.0655,0.004 0.13264,0.0376 0.18945,0.0703 0.0308,-0.003 0.0601,-0.003 0.0918,-0.004 0.038,-0.0903 0.10755,-0.13488 0.17578,-0.13476 0.10199,1.6e-4 0.20347,0.10084 0.20313,0.30273 -7e-4,0.43657 -0.0156,0.87425 -0.0293,1.31055 -0.003,0.20256 -0.008,0.40314 -0.0117,0.60547 l 0.0117,0.004 v 1.35156 1.35351 l -4.33984,7.71485 -4.33985,7.71484 -9.18555,17.67578 -9.1875,17.67383 0.83594,0.51563 0.83399,0.51562 30.65625,-15.93945 30.65625,-15.94141 h 1.19726 0.91992 l 0.006,-0.002 c 0.36175,-0.2763 0.73636,-0.54166 1.11328,-0.79688 0.0577,-0.0368 0.11028,-0.0744 0.16797,-0.11133 0.2106,-0.13442 0.41718,-0.1926 0.58203,-0.19531 0.3109,-0.005 0.51672,0.18813 0.53125,0.44141 0.0274,10e-4 0.0538,0.004 0.0781,0.006 0.25,0.0309 0.49866,0.0816 0.73633,0.16601 0.0456,0.0162 0.0925,0.0274 0.13476,0.0508 0.0714,0.0395 0.13689,0.0899 0.20508,0.13477 0.15418,0.38835 0.27376,0.50895 0.14649,0.66992 2.68913,0.39488 6.05403,1.29507 3.61132,-1.40234 -0.19181,-0.21181 -0.36741,-0.43952 -0.57421,-0.63672 -0.0127,-0.0121 -0.0326,-0.0244 -0.0547,-0.0391 0.33884,0.16605 0.70265,0.28503 1.01562,0.50195 0.60843,0.37049 1.22167,0.73766 1.8125,1.13477 1.03867,0.54669 2.10665,1.04446 3.07813,1.71093 0.88522,0.54492 1.75685,1.11081 2.63672,1.66407 0.99239,0.63669 1.94579,1.33143 2.84765,2.09179 0.81583,0.74582 1.57019,1.55629 2.4375,2.24414 0.87713,0.70401 1.7046,1.45392 2.73242,1.94336 1.00392,0.64393 2.11857,1.11526 3.0918,1.81446 1.34115,0.81572 2.64359,1.69472 4.02539,2.44336 1.61243,0.89631 3.25791,1.74751 4.92969,2.52539 1.91494,0.87708 3.92172,1.53203 5.82227,2.44336 1.83778,0.83573 3.64536,1.73453 5.43945,2.66015 1.65666,0.82377 3.28883,1.69837 4.98828,2.4336 1.53408,0.64361 3.21167,0.82944 4.76562,1.42382 1.39539,0.52586 2.76445,1.12065 4.16211,1.64063 1.18522,0.48677 2.38365,0.95541 3.51954,1.54883 0.85997,0.50911 1.70451,1.0425 2.5664,1.54882 0.88342,0.51348 1.77607,1.01602 2.71485,1.42383 0.15994,0.0768 0.31745,0.15371 0.4746,0.23438 -0.2163,-1.16244 -0.43107,-2.32525 -0.70117,-3.47656 -0.47861,-1.84644 -0.95304,-3.69252 -1.47461,-5.52735 -0.44659,-1.72428 -0.85972,-3.45816 -1.36718,-5.16601 -0.35085,-1.28554 -0.80404,-2.53331 -1.25977,-3.78516 -0.66057,-1.85876 -1.24302,-3.74511 -1.71875,-5.66016 -0.42205,-1.61291 -0.81938,-3.23187 -1.04297,-4.88672 -0.19862,-1.4638 -0.28335,-2.93871 -0.47656,-4.40234 -0.20259,-1.08734 -0.60322,-2.11151 -0.99024,-3.14453 -0.61298,-1.59681 -1.23377,-3.19987 -1.65625,-4.85938 -0.48303,-1.98264 -0.90676,-3.97868 -1.13281,-6.00976 -0.18697,-1.72931 -0.3895,-3.46063 -0.375,-5.20313 0.0256,-1.29552 0.19702,-2.58196 0.16992,-3.8789 -0.005,-1.62646 -0.008,-3.25459 -0.0332,-4.88086 -0.0274,-1.50607 -0.071,-3.01147 -0.1543,-4.51563 -0.10375,-1.7651 -0.27112,-3.526 -0.33593,-5.29297 -0.0633,-1.95122 -0.065,-3.90006 -0.0117,-5.85156 -0.0163,-2.22081 -0.20037,-4.43528 -0.37305,-6.64844 -0.1771,-2.2559 -0.3505,-4.51395 -0.47266,-6.77343 -0.12463,-2.33794 -0.24224,-4.67506 -0.30664,-7.01563 -0.0904,-2.27595 -0.16393,-4.55183 -0.12304,-6.83008 0.003,-2.12829 0.008,-4.25688 0.0195,-6.38476 0.0139,-2.31483 0.0236,-4.62935 0.0918,-6.94336 0.0693,-1.95699 0.17103,-3.91204 0.3125,-5.86524 0.12662,-2.21503 0.15719,-4.4364 0.31054,-6.65039 0.11646,-2.14739 0.18342,-4.2952 0.22852,-6.44531 0.01,-1.18706 -0.0843,-2.37823 -0.29688,-3.54687 -0.22378,-1.00316 -0.59205,-1.95093 -1.15429,-2.81836 -0.81012,-1.3755 -1.6041,-2.77634 -2.18164,-4.26758 -0.68524,-1.6796 -1.28337,-3.38837 -1.90625,-5.0918 -0.60846,-1.66767 -1.31611,-3.30165 -2.25,-4.8164 -0.97146,-1.52986 -1.96786,-3.04451 -2.91211,-4.5918 -1.20962,-1.88974 -2.27678,-3.86296 -3.33985,-5.83789 -1.03941,-1.81855 -2.04245,-3.65524 -3.16015,-5.42774 -1.00454,-1.69549 -1.82952,-3.47746 -2.6875,-5.25 -0.90648,-1.67907 -1.88594,-3.31429 -2.86329,-4.95312 -1.15549,-1.86103 -2.34612,-3.70161 -3.58593,-5.50781 -1.39175,-1.96422 -2.81776,-3.90299 -4.25,-5.83789 -1.49645,-1.9901 -2.95802,-4.009 -4.54688,-5.92774 -1.67726,-2.15983 -3.35853,-4.317 -5.14258,-6.39062 -1.83663,-2.1832 -3.76021,-4.30207 -5.41015,-6.63477 -1.60375,-2.26288 -3.14952,-4.56427 -4.73242,-6.8418 -1.3446,-2.11304 -2.61616,-4.27819 -3.76172,-6.50586 -0.70016,-1.42407 -1.38236,-2.86089 -2.20703,-4.21875 -0.65081,-1.05217 -1.2675,-2.12816 -2.04688,-3.09375 -0.27935,-0.38305 -0.5761,-0.75065 -0.89648,-1.0996 z m -113.49804,12.22265 v 0.002 h -0.002 l -0.002,0.002 c -0.0154,0.0314 -0.0124,0.15742 -0.004,0.20508 0.0188,0.059 0.0379,0.11793 0.0566,0.17773 0.022,-0.13627 0.0241,-0.26685 -0.0371,-0.375 v -0.002 h -0.002 v -0.002 l -0.002,-0.002 -0.002,-0.002 v -0.002 h -0.002 -0.002 v -0.002 z m 7.39062,6.2168 c -0.007,6.6e-4 -0.0145,0.002 -0.0195,0.004 l -0.002,0.002 -0.002,0.002 h -0.002 c -0.0811,0.0717 -0.1557,0.15029 -0.22461,0.23438 0.0792,-0.0628 0.17488,-0.1376 0.29102,-0.22852 h 0.002 v -0.002 -0.002 -0.002 -0.002 h -0.002 l -0.002,-0.002 c -0.007,-0.002 -0.0202,-0.004 -0.0312,-0.004 -0.003,5e-5 -0.005,-2.7e-4 -0.008,0 z m -12.66992,33.5957 -0.084,0.91797 c 0.0619,-0.30275 0.12297,-0.60516 0.1836,-0.9082 -0.0337,-0.003 -0.0669,-0.006 -0.0996,-0.01 z m -2.06641,22.60156 -0.0352,0.37891 c 0.008,-0.006 0.0172,-0.0117 0.0254,-0.0176 0.004,-0.12014 0.006,-0.24117 0.01,-0.36133 z m 14.99414,37.58789 -0.0391,0.0274 c 0.0159,-0.009 0.031,-0.0186 0.0469,-0.0274 -8.2e-4,2e-5 -0.005,-5e-5 -0.006,0 z m 182.86133,6.78321 c -0.31021,0.974 -0.55974,1.95395 -0.6543,2.97656 -0.0356,1.8951 0.11779,3.78753 0.20899,5.67969 0.0553,2.63359 0.2783,5.25714 0.44726,7.88476 0.23072,3.14551 0.0817,6.29433 -0.11914,9.43555 -0.20006,2.56594 -0.42532,5.12896 -0.66601,7.69141 -0.3092,3.11615 -0.42631,6.24693 -0.58203,9.37304 -0.0734,1.61065 -0.25801,3.20777 -0.49024,4.79883 0.41512,0.15049 0.9226,0.33467 1.54102,0.54297 0.37629,0.0375 0.75177,0.0745 1.12695,0.10352 h 0.002 0.002 0.002 0.002 l 0.002,0.002 h 0.002 0.002 l 0.002,0.002 h 0.002 v 0.002 l 0.002,0.002 0.002,0.002 h 0.002 v 0.002 l 0.002,0.002 c 0.0115,0.0338 -0.0399,0.11824 -0.11328,0.21875 0.0211,0.007 0.0412,0.0149 0.0625,0.0215 0.16542,0.0514 -0.0136,0.33487 -0.0293,0.51758 -0.0408,1.25849 0.0373,2.51249 0.13868,3.76563 0.0383,0.47347 0.0781,0.946 0.11523,1.41992 0.10298,1.28515 0.17725,2.57225 0.23633,3.85937 0.21968,2.5286 0.51016,5.051 0.86914,7.56446 0.41354,2.9933 1.23117,5.89406 2.24414,8.73242 0.65808,1.78835 1.35532,3.56035 2.05664,5.33203 0.69852,1.83484 1.3521,3.6856 1.98242,5.54492 0.15589,0.42649 0.30388,0.85565 0.44336,1.28711 0.56949,1.01959 1.07386,2.07326 1.42969,3.19336 0.76627,2.35464 1.32578,4.75942 1.65234,7.2168 0.36344,2.47344 0.64742,4.95848 1.08985,7.41992 0.003,0.0143 0.3771,2.01893 0.33789,2.17187 l -0.002,0.002 v 0.002 h -0.002 v 0.002 c -0.0121,0.006 -0.025,0.0101 -0.0371,0.0156 0.16145,0.77743 0.078,0.75545 -1.18164,0.53125 -0.35694,0.15575 -0.67628,0.28885 -0.96094,0.40039 0.51601,2.282 1.13719,4.53863 1.76953,6.79101 0.49104,1.82507 0.94356,3.66202 1.47266,5.47657 0.39926,1.41747 0.81457,2.8315 1.20313,4.25195 0.44542,1.5892 0.8055,3.19862 1.1914,4.80273 0.45726,1.67832 0.78409,3.38605 1.09766,5.09571 0.38372,1.73851 0.85319,3.45783 1.32617,5.17382 0.40884,1.51269 0.8556,3.01267 1.31055,4.51172 0.33783,1.1104 0.72035,2.20639 1.01953,3.32813 0.32262,0.93928 0.63538,1.8636 0.73633,2.85547 -0.29799,0.65797 -0.33134,1.52235 -0.89453,1.97461 -1.66841,1.33981 -3.46376,0.0205 -4.72852,-0.96875 -1.19902,-0.98434 -2.3217,-2.05618 -3.39844,-3.17188 -0.92432,-0.99777 -1.88011,-1.96699 -2.89648,-2.87109 -0.87763,-0.82754 -1.65957,-1.43928 -2.74219,-1.96289 -1.20048,-0.57936 -2.47524,-0.97537 -3.73828,-1.39063 -1.20418,-0.41807 -2.40858,-0.83842 -3.58008,-1.34179 -0.89799,-0.39478 -1.78781,-0.80254 -2.70508,-1.14844 -0.79699,0.97113 -2.53302,1.00639 -4.1289,-0.86524 -0.0298,-0.0349 -0.0593,-0.0693 -0.0898,-0.10351 -0.76308,-0.12543 -1.51095,-0.32018 -2.24609,-0.57422 -0.43103,-0.17915 -0.90905,-0.31697 -1.29297,-0.59375 -0.009,-0.007 -0.018,-0.0126 -0.0273,-0.0195 -0.83304,1.09666 -1.36635,2.37469 -1.90821,3.63086 -0.6908,1.60882 -1.34429,3.22974 -2.11914,4.80078 -0.91091,1.7226 -1.82209,3.4441 -2.73437,5.16601 -1.13545,1.97861 -2.1202,4.02956 -3.02149,6.12305 -1.01918,2.26983 -1.88427,4.59693 -2.72851,6.93555 -0.74537,2.07506 -1.53076,4.13555 -2.30664,6.19922 -0.55187,1.44528 -1.16247,2.86625 -1.7461,4.29882 0.0895,0.26575 0.15056,0.53723 0.1875,0.79102 0.049,0.33655 -0.0183,0.67955 -0.0273,1.01953 -0.33591,1.6566 -0.76026,3.29375 -1.31836,4.89063 -0.93893,2.4084 -2.23712,4.63943 -3.76562,6.72461 -2.05132,2.70092 -4.28649,5.26455 -6.10157,8.13867 -1.13815,1.61324 -2.30533,3.21063 -3.60937,4.69531 -0.2661,0.71086 -0.54997,1.4168 -0.85742,2.11133 -0.79303,1.67961 -1.63807,3.33346 -2.56446,4.94336 -1.09802,1.91245 -2.41468,3.68359 -3.5957,5.54297 -0.9483,1.4902 -1.75018,3.06557 -2.48438,4.66992 -1.19321,2.33928 -2.5623,4.58038 -3.79882,6.89648 -0.95944,1.91502 -1.79127,3.89161 -2.73438,5.81446 -0.71723,1.57446 -1.60442,3.05569 -2.5664,4.49023 -0.79472,0.96803 -1.319,2.07732 -1.7461,3.24414 -0.32415,1.03759 -0.60658,2.09124 -0.86914,3.14649 -0.384,1.31744 -0.91238,2.58764 -1.48633,3.83203 -0.61885,1.29282 -1.28709,2.56389 -1.74804,3.92382 -0.46576,1.53667 -1.02457,3.03962 -1.61133,4.53321 -0.64308,1.75451 -1.35845,3.47314 -2.22461,5.1289 -0.91758,1.68644 -1.73144,3.42346 -2.65039,5.10938 -0.91909,1.71708 -1.85074,3.42216 -2.89258,5.06836 -0.98306,1.52942 -2.10301,2.96434 -3.16406,4.43945 -0.71613,1.09293 -1.42002,2.18712 -2.02149,3.34766 -0.49329,0.964 -0.82218,1.99902 -1.16992,3.02148 -0.40103,1.23633 -0.79754,2.46939 -1.35547,3.64453 -0.68426,1.32595 -1.27568,2.69285 -1.97461,4.01172 -0.73602,1.36107 -1.53813,2.68247 -2.21679,4.07422 -0.62849,1.48874 -1.3713,2.91913 -2.15625,4.33008 -0.58416,1.03514 -1.27187,2.00606 -1.90039,3.01367 -0.18395,0.31237 -0.38795,0.61035 -0.60352,0.90039 -0.0183,1.21035 -0.0811,2.41901 -0.17383,3.62695 -0.23676,2.2281 -0.74537,4.44223 -1.56445,6.53125 -0.20133,0.51348 -0.43517,1.01452 -0.65235,1.52149 -1.16017,2.58224 -2.66445,4.98132 -4.25,7.31836 -1.07993,1.63276 -2.3178,3.14485 -3.38671,4.78515 -0.75392,1.2048 -1.4607,2.43942 -2.0918,3.7129 1.05789,-0.45422 2.12596,-0.88548 3.19531,-1.31055 1.87471,-0.70124 3.67279,-1.55683 5.43945,-2.49219 1.64099,-0.8125 3.1766,-1.80435 4.70313,-2.80859 1.28378,-0.84381 2.47276,-1.81412 3.69336,-2.74414 1.66357,-1.28109 3.3716,-2.50286 5.07617,-3.72852 2.20789,-1.65168 4.31521,-3.43934 6.42969,-5.20898 1.95314,-1.56819 3.63085,-3.45493 5.61328,-4.98828 0.58424,-0.4519 1.19651,-0.86586 1.79492,-1.29883 0.62345,-0.41626 1.24268,-0.83933 1.8711,-1.24805 1.42772,-0.92859 2.8722,-1.829 4.30859,-2.74414 1.47898,-0.94227 3.27338,-2.09657 4.78125,-2.98438 0.8875,-0.52254 1.79132,-1.01592 2.6875,-1.52343 4.02157,-2.17604 8.17617,-4.09328 12.26953,-6.12696 1.56867,-0.77935 2.47109,-1.23747 3.47852,-1.75976 -0.0367,-0.0505 -0.0736,-0.10083 -0.11133,-0.15039 0.39188,-0.58459 0.73066,-1.20718 1.17383,-1.75391 0.35557,-0.43867 0.78829,-0.81084 1.20898,-1.1875 1.49352,-1.33719 2.50457,-2.03449 4.16211,-3.27148 3.00277,-2.2409 2.04522,-1.52915 5.1875,-3.80664 4.70293,-3.39107 9.66888,-6.38942 14.64453,-9.35938 1.1816,-0.9828 2.35982,-1.96918 3.57813,-2.9043 0.57759,-0.44332 1.17752,-0.85785 1.76562,-1.2871 2.04802,-1.31457 4.34992,-2.84563 6.68164,-3.59375 0.30841,-0.099 0.6652,-0.33689 0.9961,-0.4629 0.41003,-0.32063 0.82034,-0.64652 1.24804,-0.98242 2.32187,-1.90979 4.7395,-3.69842 7.08985,-5.57226 1.41032,-1.09438 2.88819,-2.17979 4.54492,-2.87891 0.46595,-0.19663 0.94917,-0.34891 1.42383,-0.52344 2.11891,-0.6681 4.30154,-1.10798 6.41601,-1.78906 0.0245,-0.01 0.0496,-0.0194 0.0742,-0.0293 -1.53885,-0.61855 -1.5339,-3.00268 1.08984,-4.70703 0.94493,-0.61381 1.82137,-1.3501 2.53321,-2.22461 0.73369,-0.8828 1.32806,-1.84863 1.73047,-2.92187 0.33472,-1.27559 0.48856,-2.59735 0.73242,-3.89453 0.57674,-2.71329 1.35862,-5.3783 2.0625,-8.06055 0.81054,-3.15185 1.80743,-6.24726 2.92383,-9.30273 0.91429,-2.76598 2.24896,-5.3403 3.68164,-7.86524 1.65081,-2.73438 3.39341,-5.41126 5.04297,-8.14648 1.63689,-2.66556 3.17923,-5.38308 4.47265,-8.23242 1.31839,-2.77813 2.41881,-5.64668 3.41211,-8.55469 0.85788,-2.71139 1.6314,-5.45135 2.31836,-8.21094 0.10871,-0.43932 0.21583,-0.8775 0.32617,-1.31641 0.17169,-0.68297 0.45515,-1.8191 0.66992,-2.49414 0.40971,-1.28771 0.93339,-2.5321 1.46289,-3.77343 1.05313,-2.37632 2.22928,-4.69506 3.32227,-7.05274 0.91106,-2.04407 1.79307,-4.09379 2.91797,-6.03125 0.0336,-0.0548 0.067,-0.11003 0.10156,-0.16406 -0.43075,-0.52299 -0.60527,-1.45336 -0.69726,-2.97852 -0.0409,-0.67883 1.6813,-1.38915 2.22265,-1.63672 0.58909,-0.2057 1.0038,-0.64351 1.47461,-1.02734 0.81882,-0.76327 1.82005,-1.16537 2.88086,-1.46484 0.61404,-0.17656 0.29659,-0.0869 0.95703,-0.26367 1.48363,-0.39712 2.60278,-0.15698 3.26758,0.38281 0.27314,-0.10707 0.54615,-0.21379 0.81836,-0.32227 1.8162,-0.71576 3.6223,-1.48604 5.51562,-1.98242 1.53467,-0.40235 2.04585,-0.44446 3.61915,-0.69727 1.81972,-0.23288 3.64983,-0.29984 5.48046,-0.26367 1.25059,0.0247 2.50248,0.0975 3.75,0.19727 -0.39364,-0.79571 -0.82813,-1.57183 -1.27929,-2.33594 -0.85495,-1.45839 -1.97575,-2.72926 -3.05469,-4.02148 -0.84202,-1.00235 -1.54554,-2.10802 -2.41211,-3.08985 -0.94801,-0.9394 -1.83887,-1.93357 -2.72852,-2.92773 -0.79623,-1.02719 -1.77495,-1.92242 -2.51757,-2.99219 -0.19333,-0.27851 -0.35935,-0.5758 -0.53907,-0.86328 -0.88227,-1.78851 -1.25962,-3.76756 -1.6289,-5.71289 -0.11621,-0.60957 -0.22675,-1.21958 -0.34571,-1.82813 -0.42552,-0.74861 -0.83992,-1.50425 -1.23046,-2.27343 -0.36135,-0.71167 -0.90278,-1.81109 -1.16602,-2.58399 -0.0344,-0.10102 -0.0668,-0.20395 -0.0957,-0.30664 -0.39569,-0.45468 -0.79669,-0.90381 -1.18946,-1.35742 -1.14665,-1.26896 -2.39598,-2.43726 -3.56445,-3.68555 -1.17684,-1.24081 -2.22684,-2.5948 -3.20117,-3.99804 -0.94033,-1.34888 -1.56754,-2.87206 -2.17774,-4.38868 -0.58402,-1.3576 -0.99807,-2.77361 -1.4375,-4.18164 -0.54521,-1.84339 -1.27056,-3.61525 -2.07226,-5.35937 -0.83399,-1.7987 -1.6957,-3.58225 -2.60938,-5.3418 -1.09724,-2.11678 -2.3035,-4.17567 -3.46093,-6.25976 -1.02817,-1.86191 -2.34953,-3.54274 -3.62305,-5.24024 -1.2263,-1.56125 -2.54531,-3.04617 -3.82813,-4.56055 -1.31186,-1.54179 -2.30184,-3.30425 -3.29687,-5.05664 -1.05868,-1.85245 -1.81326,-3.85232 -2.59766,-5.83007 -0.50996,-1.37471 -1.03351,-2.74098 -1.63086,-4.08008 -0.42181,-0.94324 -0.99461,-1.80985 -1.52343,-2.69531 -0.82797,-1.33591 -1.69036,-2.64997 -2.45899,-4.02149 -0.48237,-0.81638 -0.73094,-1.77457 -1.28906,-2.54687 -0.51057,-0.73559 -0.89933,-1.45476 -0.63672,-2.48438 0.16311,-0.63947 0.63853,-1.16934 1.08399,-1.65625 0.41863,-0.45759 1.53266,-0.84908 2.07812,-1.07422 2.48969,-0.96392 5.12222,-1.37732 7.75195,-1.74023 2.79228,-0.39803 5.60485,-0.62404 8.3711,-1.18555 1.17711,-0.18261 2.28168,-0.5832 3.36914,-1.03516 -0.0306,-0.0172 -0.0623,-0.0359 -0.0957,-0.0547 -2.18764,-1.21004 -4.29596,-2.55024 -6.32031,-4.01563 -2.06079,-1.54313 -4.12266,-3.08379 -6.27734,-4.49414 -2.22974,-1.36049 -4.50702,-2.63993 -6.76367,-3.95508 -2.70448,-1.6463 -5.32678,-3.42127 -7.9375,-5.21093 -1.97726,-1.39292 -3.89789,-2.86419 -5.79688,-4.36133 -1.4789,-1.1946 -2.99964,-2.33535 -4.50781,-3.49219 -1.29909,-1.04251 -2.6755,-1.97148 -4.08008,-2.86328 -1.59232,-0.87065 -3.11292,-1.84516 -4.53125,-2.97656 -1.15246,-1.0199 -2.28037,-2.06618 -3.40625,-3.11524 -0.72472,-0.71901 -1.65391,-1.06878 -2.58594,-1.42578 -0.79532,-0.30991 -1.6003,-0.59112 -2.38867,-0.9082 z M 652.3569,335.65578 c -1.59105,0.0564 -3.18439,0.12683 -4.76368,0.33984 -0.87449,0.13048 -1.75338,0.32971 -2.48437,0.85547 -0.97471,0.91967 -1.83724,1.94364 -2.70508,2.96289 -1.4708,1.67982 -2.91548,3.38182 -4.39844,5.05079 -0.25129,0.57395 -0.51593,1.14233 -0.82812,1.6875 -0.85482,1.50715 -1.86379,2.91106 -3.03711,4.18945 -0.58037,0.65225 -1.0302,1.17447 -1.65234,1.79687 -0.15944,0.1595 -0.32119,0.31696 -0.48438,0.47266 -0.46177,0.7512 -0.95056,1.48344 -1.50977,2.16797 -0.45441,0.54844 -0.64803,0.79993 -1.14453,1.32031 -0.40103,0.42034 -0.82183,0.81872 -1.25,1.21094 -0.0601,0.0763 -0.12001,0.1538 -0.17968,0.23047 -0.65878,0.91713 -1.28042,1.86792 -2.08789,2.66601 -0.83103,0.87405 -1.66798,1.73996 -2.55274,2.56055 -0.0824,0.0798 -0.16521,0.16095 -0.24609,0.24219 -0.0198,0.0339 -0.0388,0.0677 -0.0586,0.10156 -0.19918,0.32028 -0.39103,0.64348 -0.57617,0.9707 0.80293,-0.13815 1.60266,-0.29648 2.38672,-0.52148 1.36131,-0.36559 2.73031,-0.75704 4.00977,-1.35547 0.40363,-0.22438 0.80511,-0.42642 1.07421,-0.80859 0.38396,-0.73378 0.74063,-1.49027 1.47071,-1.95118 0.87834,-0.49097 1.62735,-0.66465 2.63086,-0.68945 1.0112,-0.039 2.02345,-0.0177 3.03515,-0.0391 0.91947,-0.0141 1.83931,-0.0357 2.75782,-0.082 0.89153,-0.039 1.782,-0.0673 2.67382,-0.0117 0.8854,0.0422 1.76924,0.10492 2.64844,0.2207 0.89282,0.12423 1.78562,0.25668 2.6875,0.29688 1.0796,0.0862 2.16075,0.14245 3.24024,0.23047 0.97999,0.0771 1.96189,0.12829 2.9414,0.21289 0.35281,0.0112 0.71249,0.0481 1.0586,-0.0293 0.48464,-0.29527 0.86672,-0.71721 1.26953,-1.11133 0.57438,-0.5578 1.13863,-1.12387 1.6582,-1.73437 0.71911,-0.79366 1.48316,-1.54214 2.28711,-2.25 0.72755,-0.66794 1.45437,-1.33642 2.16211,-2.02539 0.88125,-0.86018 1.78763,-1.69522 2.72656,-2.49219 1.00921,-0.84619 2.01984,-1.6917 3.07813,-2.47656 0.8103,-0.62207 1.63079,-1.23584 2.35937,-1.95508 0.56802,-0.62207 1.12657,-1.25328 1.69922,-1.8711 0.64728,-0.68169 1.31014,-1.34803 1.90625,-2.07617 0.70183,-0.79986 1.43828,-1.56643 2.1582,-2.34961 0.55091,-0.64951 1.07837,-1.31536 1.58789,-1.99804 0.54512,-0.7304 1.13965,-1.09215 1.66797,-1.17774 0.0453,-0.0657 0.0897,-0.13139 0.13477,-0.19726 -0.40288,0.005 -0.8047,-3.6e-4 -1.20703,-0.0156 -1.45332,-0.052 -2.90635,-0.11833 -4.35938,-0.17773 -1.62791,-0.0438 -3.25559,-0.10583 -4.88281,-0.16993 -1.42133,-0.0314 -2.84255,-0.0829 -4.26367,-0.12109 -1.28072,-0.002 -2.5611,-0.004 -3.8418,-0.0117 -1.53634,-0.01 -3.07131,-0.0214 -4.60742,-0.0508 -1.39554,-0.0287 -2.79388,-0.0855 -4.18945,-0.0371 z m 101.13867,19.50781 h 0.002 l 0.004,0.002 c 0.0226,0.009 0.13388,0.0663 0.21093,0.11718 -0.0683,-0.0335 -0.13545,-0.0688 -0.20117,-0.10742 -0.007,-0.004 -0.0131,-0.008 -0.0156,-0.01 z m 72.20508,5.61524 0.002,0.008 c 0.003,0.002 0.006,0.004 0.01,0.006 -0.004,-0.005 -0.008,-0.009 -0.0117,-0.0137 z m -209.41602,7.60156 c -0.006,1.5e-4 -0.0154,0.002 -0.0312,0.006 -0.0829,0.0343 -0.16201,0.0883 -0.24414,0.125 0.033,-0.0125 0.2393,-0.0973 0.27539,-0.12305 l 0.002,-0.002 h 0.002 l 0.002,-0.002 v -0.002 h -0.002 l -0.002,-0.002 z m 272.85742,5.92773 c 0.26567,0.57234 0.56213,1.12869 0.92188,1.6504 0.1673,0.24442 0.33769,0.48681 0.51172,0.72656 z m -344.54297,40.33594 c 0.0511,0.13973 0.12915,0.2841 0.24805,0.41797 -0.0626,-0.14979 -0.14808,-0.28835 -0.24805,-0.41797 z m 294.68946,8.57813 c -0.004,0.0111 -0.007,0.024 -0.0117,0.0351 0.007,0.019 0.0178,0.0664 0.0234,0.0781 v 0.002 h 0.002 l 0.002,-0.002 v -0.002 c 4.3e-4,-0.0258 -0.006,-0.0663 -0.0156,-0.11133 z m -177.07813,14.65625 c -0.007,0.005 -0.0146,0.0103 -0.0215,0.0156 0.01,-0.004 0.0199,-0.009 0.0293,-0.0137 v -0.002 h -0.002 -0.002 -0.002 z m -0.33789,1.03906 c -0.006,10e-4 -0.0117,0.003 -0.0176,0.004 0.006,9.8e-4 0.0133,0.003 0.0195,0.004 v -0.002 l -0.002,-0.002 v -0.002 z m -11.88086,0.48437 -0.12109,0.0274 0.002,0.002 c 0.0395,-0.01 0.0796,-0.0197 0.11914,-0.0293 z m 107.62305,6.50586 -0.0254,0.0527 c 0.0152,-0.014 0.0297,-0.0286 0.0449,-0.043 -0.006,-0.004 -0.0132,-0.006 -0.0195,-0.01 z m 19.33594,0.0293 c -0.0792,0.0175 -0.15751,0.0377 -0.23633,0.0566 -0.0675,0.0163 -0.0896,0.0208 -0.14649,0.0332 0.11528,-0.004 0.23057,-0.009 0.34571,-0.0156 z m -161.67579,1.04688 -2.44335,0.5332 c 0.15624,-0.0201 0.31237,-0.0396 0.46875,-0.0586 0.0576,-0.0142 0.11623,-0.0288 0.17382,-0.043 0.47396,-0.11203 1.22608,-0.29161 1.69336,-0.39258 0.0364,-0.008 0.0729,-0.0157 0.10938,-0.0234 -4.3e-4,-0.005 -0.002,-0.0102 -0.002,-0.0156 z m 158.67579,1.31054 c -0.009,0.0152 -0.028,0.0321 -0.0352,0.0469 v 0.002 l -0.002,0.002 v 0.002 0.002 c -2e-5,7.1e-4 -7e-5,0.005 0,0.006 v 0.002 0.002 l 0.002,0.002 0.002,0.002 v 0.002 l 0.004,0.004 c 0.002,0.002 0.008,0.006 0.01,0.008 0.007,-0.0274 0.0124,-0.0546 0.0195,-0.082 z m -145.50977,13.81446 c -2.6e-4,0.0129 0.0122,0.0747 0.0508,0.19531 -0.0173,-0.10401 -0.0382,-0.17708 -0.0469,-0.19336 h -0.002 v -0.002 z m -76.48437,10.36328 -0.002,0.002 h -0.002 l -0.002,0.002 c -2.5e-4,1.8e-4 -0.003,0.003 -0.004,0.004 h -0.002 c -0.002,0.002 -0.006,0.007 -0.008,0.01 0.022,0.006 0.0444,0.0132 0.0664,0.0195 0.0437,0.008 0.14742,0.0255 0.13086,0.0215 -0.0546,-0.0164 -0.12937,-0.0662 -0.17188,-0.0586 h -0.002 -0.002 z M 666.1401,594.87258 c -0.004,0.002 -0.008,0.004 -0.0117,0.006 0.0344,0.0278 0.0693,0.056 0.10352,0.084 -0.0301,-0.0305 -0.0609,-0.0601 -0.0918,-0.0898 z m 0.28711,0.77148 c 0.0342,0.0351 0.0681,0.0695 0.10351,0.10352 0.12451,0.12158 0.254,0.23518 0.38868,0.33984 -0.16128,-0.15118 -0.32476,-0.29937 -0.49219,-0.44336 z m 15.11328,15.11914 c 0.09,0.036 0.18004,0.0625 0.26953,0.0781 -0.0918,-0.0305 -0.18171,-0.0562 -0.26953,-0.0781 z" />
      <path
         style="display:inline;fill:#07223c;fill-opacity:1"
         d="m 689.1402,617.41335 -0.86945,0.53735 -8.30762,-8.72535 -8.30761,-8.72535 -24.91143,-25.14287 -24.91143,-25.14287 8.50172,-22.85713 8.50173,-22.85713 2.08194,-4.83291 2.08195,-4.8329 v -1.51158 -1.51158 L 636.5,478.38786 630,464.9647 v -0.94717 -0.94716 l -1.75,-0.92367 -1.75,-0.92367 -22.5,4.91584 -22.5,4.91584 -12.14366,2.61295 -12.14365,2.61295 -18.85635,-10.77468 -18.85634,-10.77468 -2.8053,-1.9731 -2.8053,-1.97309 -2.37236,-3.75807 -2.37236,-3.75806 -8.07234,-14.5773 -8.07234,-14.5773 0.0444,-0.80717 0.0444,-0.80716 7.70555,-5.42962 7.70556,-5.42962 13.5,-9.4946 13.5,-9.49461 9.5,-6.66093 9.5,-6.66093 13.31511,-9.2994 13.31512,-9.29941 1.33852,-2.11544 1.33852,-2.11544 4.22201,-21.5 4.22201,-21.5 0.78834,-2.08885 0.78833,-2.08885 11.33602,-7.95611 11.33602,-7.95611 22,-15.49411 22,-15.49411 14,-9.86873 14,-9.86873 2.38486,-1.8422 2.38486,-1.8422 h 7.21015 7.21015 l 1.54646,-1.75 1.54645,-1.75 17.21452,-36.5 17.21452,-36.5 0.49535,-0.5 0.49535,-0.5 1.48561,2 1.48561,2 17.51989,27.5 17.51988,27.5 10.39317,16.17754 L 805,242.85508 v 44.19687 44.19687 l 7.5,30.01444 7.5,30.01444 v 1.46814 1.46814 l -1.75,-0.65418 -1.75,-0.65418 -15,-8.08538 -15,-8.08537 -19,-10.30448 -19,-10.30447 -3,-0.71434 -3,-0.71433 -4,-2.71331 -4,-2.7133 -11,-6.20435 -11,-6.20435 -1.5,-1.89442 -1.5,-1.89441 -13,-5.94308 -13,-5.94309 -19.5,-9.21709 -19.5,-9.21709 -2.51447,-0.45531 -2.51447,-0.45531 -13.48553,18.67376 -13.48553,18.67377 -5.60809,7.72542 -5.60808,7.72543 -11.86383,8.42974 -11.86382,8.42974 -8.72436,6 -8.72435,6 -13.55374,9.35418 L 533,402.20837 v 1.71194 1.71195 l 6.07752,2.90479 6.07752,2.90479 0.49134,0.79501 0.49134,0.79501 -8.71617,13.20125 -8.71617,13.20126 -0.10269,1.45394 -0.10269,1.45394 15.46694,8.99518 15.46693,8.99518 10.53307,-2.12108 10.53306,-2.12108 38.9858,-8.58388 38.9858,-8.58387 2.0142,0.29004 2.0142,0.29004 -8.75,8.50921 -8.75,8.5092 v 1.086 1.086 l 7.5,15.64268 7.5,15.64267 v 2.57647 2.57647 l -1.17545,2.18426 -1.17544,2.18426 -4.25259,12 -4.25259,12 -4.08175,11.33188 -4.08176,11.33189 21.60896,22.34867 21.60896,22.34868 1.35118,-0.5185 1.35117,-0.51849 4.29966,-8.69105 L 695.5,572.44204 727.76671,508.22102 760.03341,444 h 7.9833 H 776 l -0.0213,0.75 -0.0212,0.75 -8.29843,16.5 -8.29844,16.5 -34.6755,69.188 -34.6755,69.18801 z M 774,294.70742 l 1.5,-0.2453 -0.35504,-23.98106 -0.35504,-23.98106 -4.82103,-10.5 -4.82104,-10.5 -4.92401,-11.5 -4.92401,-11.5 -2.87244,-6.75 -2.87244,-6.75 h -1.12578 -1.12579 l -1.581,3.75 -1.581,3.75 -3.93938,9.5 -3.93938,9.5 -3.22169,7 -3.22169,7 -3.34004,8.65345 -3.34004,8.65345 -2.19772,4.30789 -2.19772,4.30789 3.2816,2.7396 3.28161,2.73961 13.09654,8.99955 13.09653,8.99956 10.5,8.02586 10.5,8.02587 z m -60.84362,310.06281 -1.42928,0.54847 0.38645,-0.99662 0.38645,-0.99663 48.87753,-97.41272 48.87753,-97.41273 0.75101,-0.82854 0.75101,-0.82854 13.45549,7.07854 L 838.66807,421 H 840.33403 842 v -0.47445 -0.47446 L 831.10252,376.27555 820.20503,332.5 819.75808,308 l -0.44696,-24.5 0.59444,-7.85827 0.59444,-7.85826 21,15.66472 21,15.66473 7.33213,5.56141 7.33214,5.5614 -0.83214,0.79326 -0.83213,0.79325 -10.11933,1.58888 L 855.26134,315 H 854.63067 854 v 1.76539 1.76539 l 30.07585,49.96216 30.07585,49.96217 0.17415,1.02244 0.17415,1.02245 -14.47178,0.5 -14.47177,0.5 -9.29373,22.5 -9.29373,22.5 -7.59772,18.5 -7.59773,18.5 -2.8944,7 -2.8944,7 -22.74237,14.93413 -22.74237,14.93413 -42.95717,28.42675 -42.95716,28.42675 z M 618.37113,367 h -0.47051 l 0.79969,-1.35489 0.79969,-1.3549 12,-14.59724 12,-14.59725 18.98499,-0.0479 L 681.46999,335 669,347.5 656.53001,360 h -10.54536 -10.54537 l -8.29882,3.5 -8.29882,3.5 z m 34.78357,-13 h 1.78051 l 4.0324,-5.34087 L 663,343.31826 V 342.15913 341 h -7.94098 -7.94099 l -0.77816,1.25 -0.77816,1.25 0.30548,2.5 0.30549,2.5 2.60075,2.75 2.60075,2.75 z M 622.425,272.85669 h -1.03553 l 1.08121,-16.10669 0.59323,-4.25 3.947,-43.39562 3.947,-43.39563 0.46838,-0.46838 0.46839,-0.46838 2.71521,2.13579 2.71522,2.13579 24.33366,23.57983 28.52116,32.07983 -0.54684,0.88481 -0.54685,0.88481 -9.69937,6.72497 -9.69937,6.72497 -20.77575,14.7886 -25.45122,18.1453 z"
         id="path16" />
      <text
         xml:space="preserve"
         style="text-align:start;writing-mode:lr-tb;direction:ltr;text-anchor:start;fill:#072037;fill-opacity:1;stroke:none;stroke-opacity:1"
         x="822.44672"
         y="517.06787"
         id="text118"><tspan
           id="tspan118"
           x="822.44672"
           y="517.06787">S.G</tspan></text>
    </g>
  </g>
</svg>
